<svg width="1208" height="303" viewBox="0 0 1208 303" fill="none" xmlns="http://www.w3.org/2000/svg">
<path d="M625.844 141.13L625.024 141.95H617.644L616.824 141.13L612.724 130.47L611.084 129.65H590.584L588.944 130.47L584.844 141.13L584.024 141.95H576.644L575.824 141.13V132.93L594.684 85.3697L595.504 84.5497H606.164L606.984 85.3697L625.844 132.93V141.13ZM608.624 118.99L601.244 99.3097H600.424L593.044 118.99L593.864 119.81H607.804L608.624 118.99ZM681.636 101.77C681.636 110.79 675.896 116.53 669.336 118.17V118.99L679.996 132.93V141.13L679.176 141.95H674.256L672.616 141.13L656.216 119.81L654.576 118.99H646.376L645.556 119.81V141.13L644.736 141.95H634.896L634.076 141.13V85.3697L634.896 84.5497H661.956C673.436 84.5497 681.636 90.2897 681.636 101.77ZM670.156 101.77C670.156 96.0297 666.876 94.3897 661.956 94.3897H646.376L645.556 95.2097V108.33L646.376 109.15H661.956C666.876 109.15 670.156 107.51 670.156 101.77ZM716.092 132.93C722.652 132.93 726.752 130.47 728.392 124.73L729.212 123.91H739.052L739.872 124.73C738.232 136.21 729.212 142.77 716.092 142.77C698.052 142.77 688.212 130.47 688.212 113.25C688.212 96.0297 698.052 83.7297 716.092 83.7297C729.212 83.7297 738.232 90.2897 739.872 100.95L739.052 101.77H729.212L728.392 100.95C726.752 96.0297 722.652 93.5697 716.092 93.5697C704.612 93.5697 699.692 101.77 699.692 113.25C699.692 124.73 704.612 132.93 716.092 132.93ZM796.448 141.13L795.628 141.95H785.788L784.968 141.13V118.17L784.148 117.35H762.008L761.188 118.17V141.13L760.368 141.95H750.528L749.708 141.13V85.3697L750.528 84.5497H760.368L761.188 85.3697V106.69L762.008 107.51H784.148L784.968 106.69V85.3697L785.788 84.5497H795.628L796.448 85.3697V141.13ZM821.087 141.13L820.267 141.95H810.427L809.607 141.13V85.3697L810.427 84.5497H820.267L821.087 85.3697V141.13ZM876.831 93.5697L876.011 94.3897H859.611L858.791 95.2097V141.13L857.971 141.95H848.131L847.311 141.13V95.2097L846.491 94.3897H830.091L829.271 93.5697V85.3697L830.091 84.5497H876.011L876.831 85.3697V93.5697ZM925.22 141.13L924.4 141.95H885.86L885.04 141.13V85.3697L885.86 84.5497H924.4L925.22 85.3697V93.5697L924.4 94.3897H897.34L896.52 95.2097V106.69L897.34 107.51H922.76L923.58 108.33V116.53L922.76 117.35H897.34L896.52 118.17V131.29L897.34 132.11H924.4L925.22 132.93V141.13ZM961.291 132.93C967.851 132.93 971.951 130.47 973.591 124.73L974.411 123.91H984.251L985.071 124.73C983.431 136.21 974.411 142.77 961.291 142.77C943.251 142.77 933.411 130.47 933.411 113.25C933.411 96.0297 943.251 83.7297 961.291 83.7297C974.411 83.7297 983.431 90.2897 985.071 100.95L984.251 101.77H974.411L973.591 100.95C971.951 96.0297 967.851 93.5697 961.291 93.5697C949.811 93.5697 944.891 101.77 944.891 113.25C944.891 124.73 949.811 132.93 961.291 132.93ZM1036.75 93.5697L1035.93 94.3897H1019.53L1018.71 95.2097V141.13L1017.89 141.95H1008.05L1007.23 141.13V95.2097L1006.41 94.3897H990.007L989.187 93.5697V85.3697L990.007 84.5497H1035.93L1036.75 85.3697V93.5697ZM1090.88 85.3697V119.81C1090.88 134.57 1082.68 142.77 1067.92 142.77C1053.16 142.77 1044.96 134.57 1044.96 119.81V85.3697L1045.78 84.5497H1055.62L1056.44 85.3697V119.81C1056.44 128.01 1059.72 132.93 1067.92 132.93C1076.12 132.93 1079.4 128.01 1079.4 119.81V85.3697L1080.22 84.5497H1090.06L1090.88 85.3697ZM1151.53 101.77C1151.53 110.79 1145.79 116.53 1139.23 118.17V118.99L1149.89 132.93V141.13L1149.07 141.95H1144.15L1142.51 141.13L1126.11 119.81L1124.47 118.99H1116.27L1115.45 119.81V141.13L1114.63 141.95H1104.79L1103.97 141.13V85.3697L1104.79 84.5497H1131.85C1143.33 84.5497 1151.53 90.2897 1151.53 101.77ZM1140.05 101.77C1140.05 96.0297 1136.77 94.3897 1131.85 94.3897H1116.27L1115.45 95.2097V108.33L1116.27 109.15H1131.85C1136.77 109.15 1140.05 107.51 1140.05 101.77ZM1201.57 141.13L1200.75 141.95H1162.21L1161.39 141.13V85.3697L1162.21 84.5497H1200.75L1201.57 85.3697V93.5697L1200.75 94.3897H1173.69L1172.87 95.2097V106.69L1173.69 107.51H1199.11L1199.93 108.33V116.53L1199.11 117.35H1173.69L1172.87 118.17V131.29L1173.69 132.11H1200.75L1201.57 132.93V141.13Z" fill="black"/>
<path d="M625.024 42.4843C625.024 51.5043 618.464 59.7043 601.244 59.7043C584.844 59.7043 577.464 51.5043 577.464 40.8443L578.284 40.0243H588.124L588.944 40.8443C588.944 46.5843 592.224 49.8643 602.064 49.8643C609.444 49.8643 613.544 47.4043 613.544 42.4843C613.544 36.7443 610.264 35.1043 598.784 33.4643C587.304 31.8243 578.284 27.7243 578.284 16.2443C578.284 8.04428 584.844 0.664274 600.424 0.664274C616.004 0.664274 622.564 8.04428 622.564 17.8843L621.744 18.7043H611.904L611.084 17.8843C611.084 12.9643 608.624 10.5043 599.604 10.5043C592.224 10.5043 589.764 12.9643 589.764 16.2443C589.764 21.1643 593.044 22.8043 604.524 24.4443C616.004 26.0843 625.024 31.0043 625.024 42.4843ZM659.476 49.8643C666.036 49.8643 670.136 47.4043 671.776 41.6643L672.596 40.8443H682.436L683.256 41.6643C681.616 53.1443 672.596 59.7043 659.476 59.7043C641.436 59.7043 631.596 47.4043 631.596 30.1843C631.596 12.9643 641.436 0.664274 659.476 0.664274C672.596 0.664274 681.616 7.22427 683.256 17.8843L682.436 18.7043H672.596L671.776 17.8843C670.136 12.9643 666.036 10.5043 659.476 10.5043C647.996 10.5043 643.076 18.7043 643.076 30.1843C643.076 41.6643 647.996 49.8643 659.476 49.8643ZM739.833 58.0643L739.013 58.8843H729.173L728.353 58.0643V35.1043L727.533 34.2843H705.393L704.573 35.1043V58.0643L703.753 58.8843H693.913L693.093 58.0643V2.30427L693.913 1.48427H703.753L704.573 2.30427V23.6243L705.393 24.4443H727.533L728.353 23.6243V2.30427L729.173 1.48427H739.013L739.833 2.30427V58.0643ZM793.992 30.1843C793.992 18.7043 788.252 10.5043 777.592 10.5043C766.932 10.5043 761.192 18.7043 761.192 30.1843C761.192 41.6643 766.932 49.8643 777.592 49.8643C788.252 49.8643 793.992 41.6643 793.992 30.1843ZM805.472 30.1843C805.472 47.4043 794.812 59.7043 777.592 59.7043C760.372 59.7043 749.712 47.4043 749.712 30.1843C749.712 12.9643 760.372 0.664274 777.592 0.664274C794.812 0.664274 805.472 12.9643 805.472 30.1843ZM856.292 30.1843C856.292 18.7043 850.552 10.5043 839.892 10.5043C829.232 10.5043 823.492 18.7043 823.492 30.1843C823.492 41.6643 829.232 49.8643 839.892 49.8643C850.552 49.8643 856.292 41.6643 856.292 30.1843ZM867.772 30.1843C867.772 47.4043 857.112 59.7043 839.892 59.7043C822.672 59.7043 812.012 47.4043 812.012 30.1843C812.012 12.9643 822.672 0.664274 839.892 0.664274C857.112 0.664274 867.772 12.9643 867.772 30.1843ZM916.133 58.0643L915.313 58.8843H878.413L877.593 58.0643V2.30427L878.413 1.48427H888.253L889.073 2.30427V48.2243L889.893 49.0443H915.313L916.133 49.8643V58.0643ZM983.376 30.1843C983.376 18.7043 977.636 10.5043 966.976 10.5043C956.316 10.5043 950.576 18.7043 950.576 30.1843C950.576 41.6643 956.316 49.8643 966.976 49.8643C977.636 49.8643 983.376 41.6643 983.376 30.1843ZM994.856 30.1843C994.856 47.4043 984.196 59.7043 966.976 59.7043C949.756 59.7043 939.096 47.4043 939.096 30.1843C939.096 12.9643 949.756 0.664274 966.976 0.664274C984.196 0.664274 994.856 12.9643 994.856 30.1843ZM1043.22 10.5043L1042.4 11.3243H1016.98L1016.16 12.1443V24.4443L1016.98 25.2643H1040.76L1041.58 26.0843V34.2843L1040.76 35.1043H1016.98L1016.16 35.9243V58.0643L1015.34 58.8843H1005.5L1004.68 58.0643V2.30427L1005.5 1.48427H1042.4L1043.22 2.30427V10.5043Z" fill="black"/>
<path d="M426.985 62.439C426.974 62.1871 426.963 61.9351 426.953 61.694C425.956 40.8667 418.199 25.5941 405.194 15.646C404.887 15.416 404.58 15.1859 404.274 14.9777C391.97 5.96095 375.164 1.55664 355.07 1.55664H235.288L232.155 4.69005V221.925L235.288 225.059H264.716L267.85 221.925V134.277L270.972 131.144H355.07C373.454 131.144 389.801 126.937 402.269 118.336C402.849 117.942 403.408 117.548 403.967 117.131C415.788 108.345 423.797 95.3837 426.262 78.0732C426.35 77.4597 426.427 76.8352 426.503 76.1998C426.58 75.5753 426.646 74.9398 426.7 74.3044C426.744 73.8552 426.788 73.406 426.81 72.9568C426.985 70.8094 427.062 68.6073 427.062 66.3503C427.062 65.0247 427.04 63.7209 426.985 62.439ZM270.972 98.5938L267.85 95.4604V37.2403L270.983 34.1069H352.879C380.948 34.1069 391.378 42.8497 391.378 66.3503C391.378 89.8509 380.948 98.5938 352.879 98.5938H270.972Z" fill="black"/>
<path d="M499.989 221.925L496.856 225.059H467.428L464.294 221.925V4.69005L467.439 1.55664H496.866L500 4.69005V221.925H499.989Z" fill="black"/>
<path d="M172.316 225.059L166.367 221.761L110.086 134.212L103.972 131.155H38.8171L35.6836 134.288V221.936L32.5612 225.07H3.13341L0 221.936V4.69005L3.13341 1.55664H120.724C169.259 1.55664 194.907 23.9616 194.907 66.3503C194.907 98.5938 179.13 119.596 149.232 127.255V130.355L191.774 197.187V221.739L188.454 225.059H172.316ZM120.724 98.5938C148.793 98.5938 159.223 89.8509 159.223 66.3503C159.223 42.8497 148.793 34.1069 120.724 34.1069H38.828L35.6836 37.2403V95.4604L38.8171 98.5938H120.724Z" fill="black"/>
<path d="M496.876 266.372L500 269.496V299.248L496.876 302.372H3.12364L0 299.248V269.496L3.12364 266.372H496.887H496.876Z" fill="black"/>
</svg>
