<svg width="1048" height="303" viewBox="0 0 1048 303" fill="none" xmlns="http://www.w3.org/2000/svg">
<path d="M625.379 125.55C625.379 134.57 618.819 142.77 601.599 142.77C585.199 142.77 577.819 134.57 577.819 123.91L578.639 123.09H588.479L589.299 123.91C589.299 129.65 592.579 132.93 602.419 132.93C609.799 132.93 613.899 130.47 613.899 125.55C613.899 119.81 610.619 118.17 599.139 116.53C587.659 114.89 578.639 110.79 578.639 99.3097C578.639 91.1097 585.199 83.7297 600.779 83.7297C616.359 83.7297 622.919 91.1097 622.919 100.95L622.099 101.77H612.259L611.439 100.95C611.439 96.0297 608.979 93.5697 599.959 93.5697C592.579 93.5697 590.119 96.0297 590.119 99.3097C590.119 104.23 593.399 105.87 604.879 107.51C616.359 109.15 625.379 114.07 625.379 125.55ZM659.832 132.93C666.392 132.93 670.492 130.47 672.132 124.73L672.952 123.91H682.792L683.612 124.73C681.972 136.21 672.952 142.77 659.832 142.77C641.792 142.77 631.952 130.47 631.952 113.25C631.952 96.0297 641.792 83.7297 659.832 83.7297C672.952 83.7297 681.972 90.2897 683.612 100.95L682.792 101.77H672.952L672.132 100.95C670.492 96.0297 666.392 93.5697 659.832 93.5697C648.352 93.5697 643.432 101.77 643.432 113.25C643.432 124.73 648.352 132.93 659.832 132.93ZM704.929 141.13L704.109 141.95H694.269L693.449 141.13V85.3697L694.269 84.5497H704.109L704.929 85.3697V141.13ZM758.213 141.13L757.393 141.95H718.853L718.033 141.13V85.3697L718.853 84.5497H757.393L758.213 85.3697V93.5697L757.393 94.3897H730.333L729.513 95.2097V106.69L730.333 107.51H755.753L756.573 108.33V116.53L755.753 117.35H730.333L729.513 118.17V131.29L730.333 132.11H757.393L758.213 132.93V141.13ZM769.683 85.3697L770.503 84.5497H781.983L783.623 85.3697L805.763 123.09H806.583V85.3697L807.403 84.5497H817.243L818.063 85.3697V141.13L817.243 141.95H805.763L804.123 141.13L781.983 103.41H781.163V141.13L780.343 141.95H770.503L769.683 141.13V85.3697ZM855.783 132.93C862.343 132.93 866.443 130.47 868.083 124.73L868.903 123.91H878.743L879.563 124.73C877.923 136.21 868.903 142.77 855.783 142.77C837.743 142.77 827.903 130.47 827.903 113.25C827.903 96.0297 837.743 83.7297 855.783 83.7297C868.903 83.7297 877.923 90.2897 879.563 100.95L878.743 101.77H868.903L868.083 100.95C866.443 96.0297 862.343 93.5697 855.783 93.5697C844.303 93.5697 839.383 101.77 839.383 113.25C839.383 124.73 844.303 132.93 855.783 132.93ZM929.58 141.13L928.76 141.95H890.22L889.4 141.13V85.3697L890.22 84.5497H928.76L929.58 85.3697V93.5697L928.76 94.3897H901.7L900.88 95.2097V106.69L901.7 107.51H927.12L927.94 108.33V116.53L927.12 117.35H901.7L900.88 118.17V131.29L901.7 132.11H928.76L929.58 132.93V141.13Z" fill="black"/>
<path d="M625.379 42.4843C625.379 51.5043 618.819 59.7043 601.599 59.7043C585.199 59.7043 577.819 51.5043 577.819 40.8443L578.639 40.0243H588.479L589.299 40.8443C589.299 46.5843 592.579 49.8643 602.419 49.8643C609.799 49.8643 613.899 47.4043 613.899 42.4843C613.899 36.7443 610.619 35.1043 599.139 33.4643C587.659 31.8243 578.639 27.7243 578.639 16.2443C578.639 8.04428 585.199 0.664274 600.779 0.664274C616.359 0.664274 622.919 8.04428 622.919 17.8843L622.099 18.7043H612.259L611.439 17.8843C611.439 12.9643 608.979 10.5043 599.959 10.5043C592.579 10.5043 590.119 12.9643 590.119 16.2443C590.119 21.1643 593.399 22.8043 604.879 24.4443C616.359 26.0843 625.379 31.0043 625.379 42.4843ZM659.832 49.8643C666.392 49.8643 670.492 47.4043 672.132 41.6643L672.952 40.8443H682.792L683.612 41.6643C681.972 53.1443 672.952 59.7043 659.832 59.7043C641.792 59.7043 631.952 47.4043 631.952 30.1843C631.952 12.9643 641.792 0.664274 659.832 0.664274C672.952 0.664274 681.972 7.22427 683.612 17.8843L682.792 18.7043H672.952L672.132 17.8843C670.492 12.9643 666.392 10.5043 659.832 10.5043C648.352 10.5043 643.432 18.7043 643.432 30.1843C643.432 41.6643 648.352 49.8643 659.832 49.8643ZM740.189 58.0643L739.369 58.8843H729.529L728.709 58.0643V35.1043L727.889 34.2843H705.749L704.929 35.1043V58.0643L704.109 58.8843H694.269L693.449 58.0643V2.30427L694.269 1.48427H704.109L704.929 2.30427V23.6243L705.749 24.4443H727.889L728.709 23.6243V2.30427L729.529 1.48427H739.369L740.189 2.30427V58.0643ZM794.347 30.1843C794.347 18.7043 788.607 10.5043 777.947 10.5043C767.287 10.5043 761.547 18.7043 761.547 30.1843C761.547 41.6643 767.287 49.8643 777.947 49.8643C788.607 49.8643 794.347 41.6643 794.347 30.1843ZM805.827 30.1843C805.827 47.4043 795.167 59.7043 777.947 59.7043C760.727 59.7043 750.067 47.4043 750.067 30.1843C750.067 12.9643 760.727 0.664274 777.947 0.664274C795.167 0.664274 805.827 12.9643 805.827 30.1843ZM856.648 30.1843C856.648 18.7043 850.908 10.5043 840.248 10.5043C829.588 10.5043 823.848 18.7043 823.848 30.1843C823.848 41.6643 829.588 49.8643 840.248 49.8643C850.908 49.8643 856.648 41.6643 856.648 30.1843ZM868.128 30.1843C868.128 47.4043 857.468 59.7043 840.248 59.7043C823.028 59.7043 812.368 47.4043 812.368 30.1843C812.368 12.9643 823.028 0.664274 840.248 0.664274C857.468 0.664274 868.128 12.9643 868.128 30.1843ZM916.489 58.0643L915.669 58.8843H878.769L877.949 58.0643V2.30427L878.769 1.48427H888.609L889.429 2.30427V48.2243L890.249 49.0443H915.669L916.489 49.8643V58.0643ZM983.732 30.1843C983.732 18.7043 977.992 10.5043 967.332 10.5043C956.672 10.5043 950.932 18.7043 950.932 30.1843C950.932 41.6643 956.672 49.8643 967.332 49.8643C977.992 49.8643 983.732 41.6643 983.732 30.1843ZM995.212 30.1843C995.212 47.4043 984.552 59.7043 967.332 59.7043C950.112 59.7043 939.452 47.4043 939.452 30.1843C939.452 12.9643 950.112 0.664274 967.332 0.664274C984.552 0.664274 995.212 12.9643 995.212 30.1843ZM1043.57 10.5043L1042.75 11.3243H1017.33L1016.51 12.1443V24.4443L1017.33 25.2643H1041.11L1041.93 26.0843V34.2843L1041.11 35.1043H1017.33L1016.51 35.9243V58.0643L1015.69 58.8843H1005.85L1005.03 58.0643V2.30427L1005.85 1.48427H1042.75L1043.57 2.30427V10.5043Z" fill="black"/>
<path d="M427.341 62.439C427.33 62.1871 427.319 61.9351 427.308 61.694C426.311 40.8667 418.554 25.5941 405.549 15.646C405.243 15.416 404.936 15.1859 404.629 14.9777C392.326 5.96095 375.519 1.55664 355.426 1.55664H235.644L232.511 4.69005V221.925L235.644 225.059H265.072L268.205 221.925V134.277L271.328 131.144H355.426C373.81 131.144 390.156 126.937 402.624 118.336C403.205 117.942 403.764 117.548 404.322 117.131C416.144 108.345 424.153 95.3837 426.618 78.0732C426.705 77.4597 426.782 76.8352 426.859 76.1998C426.935 75.5753 427.001 74.9398 427.056 74.3044C427.1 73.8552 427.144 73.406 427.166 72.9568C427.341 70.8094 427.418 68.6073 427.418 66.3503C427.418 65.0247 427.396 63.7209 427.341 62.439ZM271.328 98.5938L268.205 95.4604V37.2403L271.339 34.1069H353.235C381.304 34.1069 391.734 42.8497 391.734 66.3503C391.734 89.8509 381.304 98.5938 353.235 98.5938H271.328Z" fill="black"/>
<path d="M500.344 221.925L497.211 225.059H467.783L464.65 221.925V4.69005L467.794 1.55664H497.222L500.355 4.69005V221.925H500.344Z" fill="black"/>
<path d="M172.671 225.059L166.722 221.761L110.441 134.212L104.328 131.155H39.1725L36.0391 134.288V221.936L32.9167 225.07H3.48888L0.355469 221.936V4.69005L3.48888 1.55664H121.079C169.615 1.55664 195.262 23.9616 195.262 66.3503C195.262 98.5938 179.486 119.596 149.587 127.255V130.355L192.129 197.187V221.739L188.809 225.059H172.671ZM121.079 98.5938C149.149 98.5938 159.579 89.8509 159.579 66.3503C159.579 42.8497 149.149 34.1069 121.079 34.1069H39.1835L36.0391 37.2403V95.4604L39.1725 98.5938H121.079Z" fill="black"/>
<path d="M497.232 266.372L500.355 269.496V299.248L497.232 302.372H3.4791L0.355469 299.248V269.496L3.4791 266.372H497.243H497.232Z" fill="black"/>
</svg>
