<svg width="500" height="301" viewBox="0 0 500 301" fill="none" xmlns="http://www.w3.org/2000/svg">
<path d="M426.985 60.9629C426.974 60.7109 426.963 60.4589 426.953 60.2179C425.956 39.3906 418.199 24.1179 405.194 14.1699C404.887 13.9398 404.58 13.7097 404.274 13.5016C391.97 4.48481 375.164 0.0805054 355.07 0.0805054H235.288L232.155 3.21392V220.449L235.288 223.583H264.716L267.85 220.449V132.801L270.972 129.668H355.07C373.454 129.668 389.801 125.461 402.269 116.86C402.849 116.466 403.408 116.072 403.967 115.655C415.788 106.868 423.797 93.9075 426.262 76.5971C426.35 75.9836 426.427 75.3591 426.503 74.7236C426.58 74.0991 426.646 73.4637 426.7 72.8282C426.744 72.379 426.788 71.9298 426.81 71.4806C426.985 69.3333 427.062 67.1311 427.062 64.8742C427.062 63.5485 427.04 62.2448 426.985 60.9629ZM270.972 97.1177L267.85 93.9842V35.7641L270.983 32.6307H352.879C380.948 32.6307 391.378 41.3736 391.378 64.8742C391.378 88.3748 380.948 97.1177 352.879 97.1177H270.972Z" fill="black"/>
<path d="M499.989 220.449L496.856 223.583H467.428L464.294 220.449V3.21392L467.439 0.0805054H496.866L500 3.21392V220.449H499.989Z" fill="black"/>
<path d="M172.316 223.583L166.367 220.285L110.086 132.736L103.972 129.679H38.8171L35.6836 132.812V220.46L32.5612 223.594H3.13341L0 220.46V3.21392L3.13341 0.0805054H120.724C169.259 0.0805054 194.907 22.4855 194.907 64.8742C194.907 97.1177 179.13 118.12 149.232 125.779V128.879L191.774 195.711V220.263L188.454 223.583H172.316ZM120.724 97.1177C148.793 97.1177 159.223 88.3748 159.223 64.8742C159.223 41.3736 148.793 32.6307 120.724 32.6307H38.828L35.6836 35.7641V93.9842L38.8171 97.1177H120.724Z" fill="black"/>
<path d="M485.703 283.025H492.852V300.896H478.555V265.154H485.703V283.025ZM35.2314 282.896H42.3799V300.767H28.083V265.025H35.2314V282.896ZM63.3906 282.896H70.5391V300.767H56.2422V265.025H63.3906V282.896ZM91.5498 282.896H98.6982V300.767H84.4014V265.025H91.5498V282.896ZM119.709 282.896H126.857V300.767H112.561V265.025H119.709V282.896ZM147.868 282.896H155.017V300.767H140.72V265.025H147.868V282.896ZM176.027 282.896H183.176V300.767H168.879V265.025H176.027V282.896ZM204.187 282.896H211.335V300.767H197.038V265.025H204.187V282.896ZM232.346 282.896H239.494V300.767H225.197V265.025H232.346V282.896ZM260.505 282.896H267.653V300.767H253.356V265.025H260.505V282.896ZM288.664 282.896H295.812V300.767H281.516V265.025H288.664V282.896ZM316.824 282.896H323.973V300.767H309.676V265.025H316.824V282.896ZM344.983 282.896H352.132V300.767H337.835V265.025H344.983V282.896ZM373.143 282.896H380.291V300.767H365.994V265.025H373.143V282.896ZM401.302 282.896H408.45V300.767H394.153V265.025H401.302V282.896ZM429.461 282.896H436.609V300.767H422.312V265.025H429.461V282.896ZM457.62 282.896H464.769V300.767H450.472V265.025H457.62V282.896ZM7.14844 282.767H14.2969V300.638H0V264.896H7.14844V282.767ZM500 283.025H492.852V265.154H500V283.025ZM49.5283 282.896H42.3799V265.025H49.5283V282.896ZM77.6875 282.896H70.5391V265.025H77.6875V282.896ZM105.847 282.896H98.6982V265.025H105.847V282.896ZM134.006 282.896H126.857V265.025H134.006V282.896ZM162.165 282.896H155.017V265.025H162.165V282.896ZM190.324 282.896H183.176V265.025H190.324V282.896ZM218.483 282.896H211.335V265.025H218.483V282.896ZM246.643 282.896H239.494V265.025H246.643V282.896ZM274.802 282.896H267.653V265.025H274.802V282.896ZM302.961 282.896H295.812V265.025H302.961V282.896ZM331.121 282.896H323.973V265.025H331.121V282.896ZM359.28 282.896H352.132V265.025H359.28V282.896ZM387.439 282.896H380.291V265.025H387.439V282.896ZM415.599 282.896H408.45V265.025H415.599V282.896ZM443.758 282.896H436.609V265.025H443.758V282.896ZM471.917 282.896H464.769V265.025H471.917V282.896ZM21.4453 282.767H14.2969V264.896H21.4453V282.767Z" fill="black"/>
</svg>
