<svg width="1006" height="302" viewBox="0 0 1006 302" fill="none" xmlns="http://www.w3.org/2000/svg">
<path d="M606.588 167.184C606.588 172.464 602.748 177.264 592.668 177.264C583.068 177.264 578.748 172.464 578.748 166.224L579.228 165.744H584.988L585.468 166.224C585.468 169.584 587.388 171.504 593.148 171.504C597.468 171.504 599.868 170.064 599.868 167.184C599.868 163.824 597.948 162.864 591.228 161.904C584.508 160.944 579.228 158.544 579.228 151.824C579.228 147.024 583.068 142.704 592.188 142.704C601.308 142.704 605.148 147.024 605.148 152.784L604.668 153.264H598.908L598.428 152.784C598.428 149.904 596.988 148.464 591.708 148.464C587.388 148.464 585.948 149.904 585.948 151.824C585.948 154.704 587.868 155.664 594.588 156.624C601.308 157.584 606.588 160.464 606.588 167.184ZM636.356 159.984C636.356 153.264 632.996 148.464 626.756 148.464C620.516 148.464 617.156 153.264 617.156 159.984C617.156 166.704 620.516 171.504 626.756 171.504C632.996 171.504 636.356 166.704 636.356 159.984ZM643.076 159.984C643.076 170.064 636.836 177.264 626.756 177.264C616.676 177.264 610.436 170.064 610.436 159.984C610.436 149.904 616.676 142.704 626.756 142.704C636.836 142.704 643.076 149.904 643.076 159.984ZM663.224 171.504C667.064 171.504 669.464 170.064 670.424 166.704L670.904 166.224H676.664L677.144 166.704C676.184 173.424 670.904 177.264 663.224 177.264C652.664 177.264 646.904 170.064 646.904 159.984C646.904 149.904 652.664 142.704 663.224 142.704C670.904 142.704 676.184 146.544 677.144 152.784L676.664 153.264H670.904L670.424 152.784C669.464 149.904 667.064 148.464 663.224 148.464C656.504 148.464 653.624 153.264 653.624 159.984C653.624 166.704 656.504 171.504 663.224 171.504ZM689.623 176.304L689.143 176.784H683.383L682.903 176.304V143.664L683.383 143.184H689.143L689.623 143.664V176.304ZM723.693 176.304L723.213 176.784H718.893L718.413 176.304L716.013 170.064L715.053 169.584H703.053L702.093 170.064L699.693 176.304L699.213 176.784H694.893L694.413 176.304V171.504L705.453 143.664L705.933 143.184H712.173L712.653 143.664L723.693 171.504V176.304ZM713.613 163.344L709.293 151.824H708.813L704.493 163.344L704.973 163.824H713.133L713.613 163.344ZM751.072 176.304L750.592 176.784H728.992L728.512 176.304V143.664L728.992 143.184H734.752L735.232 143.664V170.544L735.712 171.024H750.592L751.072 171.504V176.304ZM792.354 167.184C792.354 172.464 788.514 177.264 778.434 177.264C768.834 177.264 764.514 172.464 764.514 166.224L764.994 165.744H770.754L771.234 166.224C771.234 169.584 773.154 171.504 778.914 171.504C783.234 171.504 785.634 170.064 785.634 167.184C785.634 163.824 783.714 162.864 776.994 161.904C770.274 160.944 764.994 158.544 764.994 151.824C764.994 147.024 768.834 142.704 777.954 142.704C787.074 142.704 790.914 147.024 790.914 152.784L790.434 153.264H784.674L784.194 152.784C784.194 149.904 782.754 148.464 777.474 148.464C773.154 148.464 771.714 149.904 771.714 151.824C771.714 154.704 773.634 155.664 780.354 156.624C787.074 157.584 792.354 160.464 792.354 167.184ZM812.521 171.504C816.361 171.504 818.761 170.064 819.721 166.704L820.201 166.224H825.961L826.441 166.704C825.481 173.424 820.201 177.264 812.521 177.264C801.961 177.264 796.201 170.064 796.201 159.984C796.201 149.904 801.961 142.704 812.521 142.704C820.201 142.704 825.481 146.544 826.441 152.784L825.961 153.264H820.201L819.721 152.784C818.761 149.904 816.361 148.464 812.521 148.464C805.801 148.464 802.921 153.264 802.921 159.984C802.921 166.704 805.801 171.504 812.521 171.504ZM838.919 176.304L838.439 176.784H832.679L832.199 176.304V143.664L832.679 143.184H838.439L838.919 143.664V176.304ZM870.11 176.304L869.63 176.784H847.07L846.59 176.304V143.664L847.07 143.184H869.63L870.11 143.664V148.464L869.63 148.944H853.79L853.31 149.424V156.144L853.79 156.624H868.67L869.15 157.104V161.904L868.67 162.384H853.79L853.31 162.864V170.544L853.79 171.024H869.63L870.11 171.504V176.304ZM876.824 143.664L877.304 143.184H884.024L884.984 143.664L897.944 165.744H898.424V143.664L898.904 143.184H904.664L905.144 143.664V176.304L904.664 176.784H897.944L896.984 176.304L884.024 154.224H883.544V176.304L883.064 176.784H877.304L876.824 176.304V143.664ZM927.224 171.504C931.064 171.504 933.464 170.064 934.424 166.704L934.904 166.224H940.664L941.144 166.704C940.184 173.424 934.904 177.264 927.224 177.264C916.664 177.264 910.904 170.064 910.904 159.984C910.904 149.904 916.664 142.704 927.224 142.704C934.904 142.704 940.184 146.544 941.144 152.784L940.664 153.264H934.904L934.424 152.784C933.464 149.904 931.064 148.464 927.224 148.464C920.504 148.464 917.624 153.264 917.624 159.984C917.624 166.704 920.504 171.504 927.224 171.504ZM970.423 176.304L969.943 176.784H947.383L946.903 176.304V143.664L947.383 143.184H969.943L970.423 143.664V148.464L969.943 148.944H954.103L953.623 149.424V156.144L954.103 156.624H968.983L969.463 157.104V161.904L968.983 162.384H954.103L953.623 162.864V170.544L954.103 171.024H969.943L970.423 171.504V176.304ZM1003.06 167.184C1003.06 172.464 999.217 177.264 989.137 177.264C979.537 177.264 975.217 172.464 975.217 166.224L975.697 165.744H981.457L981.937 166.224C981.937 169.584 983.857 171.504 989.617 171.504C993.937 171.504 996.337 170.064 996.337 167.184C996.337 163.824 994.417 162.864 987.697 161.904C980.977 160.944 975.697 158.544 975.697 151.824C975.697 147.024 979.537 142.704 988.657 142.704C997.777 142.704 1001.62 147.024 1001.62 152.784L1001.14 153.264H995.377L994.897 152.784C994.897 149.904 993.457 148.464 988.177 148.464C983.857 148.464 982.417 149.904 982.417 151.824C982.417 154.704 984.337 155.664 991.057 156.624C997.777 157.584 1003.06 160.464 1003.06 167.184Z" fill="black"/>
<path d="M607.068 128.857L606.588 129.337H602.268L601.788 128.857L599.388 122.617L598.428 122.137H586.428L585.468 122.617L583.068 128.857L582.588 129.337H578.268L577.788 128.857V124.057L588.828 96.2174L589.308 95.7374H595.548L596.028 96.2174L607.068 124.057V128.857ZM596.988 115.897L592.668 104.377H592.188L587.868 115.897L588.348 116.377H596.508L596.988 115.897ZM639.727 105.817C639.727 111.097 636.367 114.457 632.527 115.417V115.897L638.767 124.057V128.857L638.287 129.337H635.407L634.447 128.857L624.847 116.377L623.887 115.897H619.087L618.607 116.377V128.857L618.127 129.337H612.367L611.887 128.857V96.2174L612.367 95.7374H628.207C634.927 95.7374 639.727 99.0974 639.727 105.817ZM633.007 105.817C633.007 102.457 631.087 101.497 628.207 101.497H619.087L618.607 101.977V109.657L619.087 110.137H628.207C631.087 110.137 633.007 109.177 633.007 105.817ZM669.988 101.017L669.508 101.497H659.908L659.428 101.977V128.857L658.948 129.337H653.188L652.708 128.857V101.977L652.228 101.497H642.628L642.148 101.017V96.2174L642.628 95.7374H669.508L669.988 96.2174V101.017ZM700.244 119.737C700.244 125.017 696.404 129.817 686.324 129.817C676.724 129.817 672.404 125.017 672.404 118.777L672.884 118.297H678.644L679.124 118.777C679.124 122.137 681.044 124.057 686.804 124.057C691.124 124.057 693.524 122.617 693.524 119.737C693.524 116.377 691.604 115.417 684.884 114.457C678.164 113.497 672.884 111.097 672.884 104.377C672.884 99.5774 676.724 95.2574 685.844 95.2574C694.964 95.2574 698.804 99.5774 698.804 105.337L698.324 105.817H692.564L692.084 105.337C692.084 102.457 690.644 101.017 685.364 101.017C681.044 101.017 679.604 102.457 679.604 104.377C679.604 107.257 681.524 108.217 688.244 109.177C694.964 110.137 700.244 113.017 700.244 119.737ZM712.754 129.337L712.274 130.777L708.434 135.577L707.474 136.057H704.594V135.097L707.474 130.297V129.817L706.994 129.337H705.554L705.074 128.857V122.617L705.554 122.137H712.274L712.754 122.617V129.337ZM758.381 128.857L757.901 129.337H753.581L753.101 128.857L750.701 122.617L749.741 122.137H737.741L736.781 122.617L734.381 128.857L733.901 129.337H729.581L729.101 128.857V124.057L740.141 96.2174L740.621 95.7374H746.861L747.341 96.2174L758.381 124.057V128.857ZM748.301 115.897L743.981 104.377H743.501L739.181 115.897L739.661 116.377H747.821L748.301 115.897ZM763.199 96.2174L763.679 95.7374H770.399L771.359 96.2174L784.319 118.297H784.799V96.2174L785.279 95.7374H791.039L791.519 96.2174V128.857L791.039 129.337H784.319L783.359 128.857L770.399 106.777H769.919V128.857L769.439 129.337H763.679L763.199 128.857V96.2174ZM826.559 112.537C826.559 123.097 822.239 129.337 810.239 129.337H799.679L799.199 128.857V96.2174L799.679 95.7374H810.239C822.239 95.7374 826.559 101.977 826.559 112.537ZM819.839 112.537C819.839 104.857 817.439 101.497 810.719 101.497H806.399L805.919 101.977V123.097L806.399 123.577H810.719C817.439 123.577 819.839 120.217 819.839 112.537Z" fill="black"/>
<path d="M608.028 81.4106L607.548 81.8906H601.788L601.308 81.4106V67.9706L600.828 67.4906H587.868L587.388 67.9706V81.4106L586.908 81.8906H581.148L580.668 81.4106V48.7706L581.148 48.2906H586.908L587.388 48.7706V61.2506L587.868 61.7306H600.828L601.308 61.2506V48.7706L601.788 48.2906H607.548L608.028 48.7706V81.4106ZM642.611 48.7706V68.9306C642.611 77.5706 637.811 82.3706 629.171 82.3706C620.531 82.3706 615.731 77.5706 615.731 68.9306V48.7706L616.211 48.2906H621.971L622.451 48.7706V68.9306C622.451 73.7306 624.371 76.6106 629.171 76.6106C633.971 76.6106 635.891 73.7306 635.891 68.9306V48.7706L636.371 48.2906H642.131L642.611 48.7706ZM686.278 81.4106L685.798 81.8906H680.038L679.558 81.4106V62.6906H679.078L671.398 81.4106L670.918 81.8906H665.638L665.158 81.4106L657.478 62.6906H656.998V81.4106L656.518 81.8906H650.758L650.278 81.4106V48.7706L650.758 48.2906H657.958L658.438 48.7706L668.038 72.2906H668.518L678.118 48.7706L678.598 48.2906H685.798L686.278 48.7706V81.4106ZM720.365 81.4106L719.885 81.8906H715.565L715.085 81.4106L712.685 75.1706L711.725 74.6906H699.725L698.765 75.1706L696.365 81.4106L695.885 81.8906H691.565L691.085 81.4106V76.6106L702.125 48.7706L702.605 48.2906H708.845L709.325 48.7706L720.365 76.6106V81.4106ZM710.285 68.4506L705.965 56.9306H705.485L701.165 68.4506L701.645 68.9306H709.805L710.285 68.4506ZM725.184 48.7706L725.664 48.2906H732.384L733.344 48.7706L746.304 70.8506H746.784V48.7706L747.264 48.2906H753.024L753.504 48.7706V81.4106L753.024 81.8906H746.304L745.344 81.4106L732.384 59.3306H731.904V81.4106L731.424 81.8906H725.664L725.184 81.4106V48.7706ZM767.904 81.4106L767.424 81.8906H761.664L761.184 81.4106V48.7706L761.664 48.2906H767.424L767.904 48.7706V81.4106ZM800.534 53.5706L800.054 54.0506H790.454L789.974 54.5306V81.4106L789.494 81.8906H783.734L783.254 81.4106V54.5306L782.774 54.0506H773.174L772.694 53.5706V48.7706L773.174 48.2906H800.054L800.534 48.7706V53.5706ZM812.06 81.4106L811.58 81.8906H805.82L805.34 81.4106V48.7706L805.82 48.2906H811.58L812.06 48.7706V81.4106ZM843.251 81.4106L842.771 81.8906H820.211L819.731 81.4106V48.7706L820.211 48.2906H842.771L843.251 48.7706V53.5706L842.771 54.0506H826.931L826.451 54.5306V61.2506L826.931 61.7306H841.811L842.291 62.2106V67.0106L841.811 67.4906H826.931L826.451 67.9706V75.6506L826.931 76.1306H842.771L843.251 76.6106V81.4106ZM875.885 72.2906C875.885 77.5706 872.045 82.3706 861.965 82.3706C852.365 82.3706 848.045 77.5706 848.045 71.3306L848.525 70.8506H854.285L854.765 71.3306C854.765 74.6906 856.685 76.6106 862.445 76.6106C866.765 76.6106 869.165 75.1706 869.165 72.2906C869.165 68.9306 867.245 67.9706 860.525 67.0106C853.805 66.0506 848.525 63.6506 848.525 56.9306C848.525 52.1306 852.365 47.8106 861.485 47.8106C870.605 47.8106 874.445 52.1306 874.445 57.8906L873.965 58.3706H868.205L867.725 57.8906C867.725 55.0106 866.285 53.5706 861.005 53.5706C856.685 53.5706 855.245 55.0106 855.245 56.9306C855.245 59.8106 857.165 60.7706 863.885 61.7306C870.605 62.6906 875.885 65.5706 875.885 72.2906ZM888.395 81.8906L887.915 83.3306L884.075 88.1306L883.115 88.6106H880.235V87.6506L883.115 82.8506V82.3706L882.635 81.8906H881.195L880.715 81.4106V75.1706L881.195 74.6906H887.915L888.395 75.1706V81.8906Z" fill="black"/>
<path d="M606.588 24.8438C606.588 30.1238 602.748 34.9238 592.668 34.9238C583.068 34.9238 578.748 30.1238 578.748 23.8838L579.228 23.4038H584.988L585.468 23.8838C585.468 27.2438 587.388 29.1638 593.148 29.1638C597.468 29.1638 599.868 27.7238 599.868 24.8438C599.868 21.4838 597.948 20.5238 591.228 19.5638C584.508 18.6038 579.228 16.2038 579.228 9.48385C579.228 4.68385 583.068 0.363846 592.188 0.363846C601.308 0.363846 605.148 4.68385 605.148 10.4438L604.668 10.9238H598.908L598.428 10.4438C598.428 7.56385 596.988 6.12385 591.708 6.12385C587.388 6.12385 585.948 7.56385 585.948 9.48385C585.948 12.3638 587.868 13.3238 594.588 14.2838C601.308 15.2438 606.588 18.1238 606.588 24.8438ZM626.756 29.1638C630.596 29.1638 632.996 27.7238 633.956 24.3638L634.436 23.8838H640.196L640.676 24.3638C639.716 31.0838 634.436 34.9238 626.756 34.9238C616.196 34.9238 610.436 27.7238 610.436 17.6438C610.436 7.56385 616.196 0.363846 626.756 0.363846C634.436 0.363846 639.716 4.20385 640.676 10.4438L640.196 10.9238H634.436L633.956 10.4438C632.996 7.56385 630.596 6.12385 626.756 6.12385C620.036 6.12385 617.156 10.9238 617.156 17.6438C617.156 24.3638 620.036 29.1638 626.756 29.1638ZM673.794 33.9638L673.314 34.4438H667.554L667.074 33.9638V20.5238L666.594 20.0438H653.634L653.154 20.5238V33.9638L652.674 34.4438H646.914L646.434 33.9638V1.32384L646.914 0.843845H652.674L653.154 1.32384V13.8038L653.634 14.2838H666.594L667.074 13.8038V1.32384L667.554 0.843845H673.314L673.794 1.32384V33.9638ZM705.496 17.6438C705.496 10.9238 702.136 6.12385 695.896 6.12385C689.656 6.12385 686.296 10.9238 686.296 17.6438C686.296 24.3638 689.656 29.1638 695.896 29.1638C702.136 29.1638 705.496 24.3638 705.496 17.6438ZM712.216 17.6438C712.216 27.7238 705.976 34.9238 695.896 34.9238C685.816 34.9238 679.576 27.7238 679.576 17.6438C679.576 7.56385 685.816 0.363846 695.896 0.363846C705.976 0.363846 712.216 7.56385 712.216 17.6438ZM741.965 17.6438C741.965 10.9238 738.605 6.12385 732.365 6.12385C726.125 6.12385 722.765 10.9238 722.765 17.6438C722.765 24.3638 726.125 29.1638 732.365 29.1638C738.605 29.1638 741.965 24.3638 741.965 17.6438ZM748.685 17.6438C748.685 27.7238 742.445 34.9238 732.365 34.9238C722.285 34.9238 716.045 27.7238 716.045 17.6438C716.045 7.56385 722.285 0.363846 732.365 0.363846C742.445 0.363846 748.685 7.56385 748.685 17.6438ZM776.994 33.9638L776.514 34.4438H754.914L754.434 33.9638V1.32384L754.914 0.843845H760.674L761.154 1.32384V28.2038L761.634 28.6838H776.514L776.994 29.1638V33.9638ZM816.356 17.6438C816.356 10.9238 812.996 6.12385 806.756 6.12385C800.516 6.12385 797.156 10.9238 797.156 17.6438C797.156 24.3638 800.516 29.1638 806.756 29.1638C812.996 29.1638 816.356 24.3638 816.356 17.6438ZM823.076 17.6438C823.076 27.7238 816.836 34.9238 806.756 34.9238C796.676 34.9238 790.436 27.7238 790.436 17.6438C790.436 7.56385 796.676 0.363846 806.756 0.363846C816.836 0.363846 823.076 7.56385 823.076 17.6438ZM851.384 6.12385L850.904 6.60385H836.024L835.544 7.08385V14.2838L836.024 14.7638H849.944L850.424 15.2438V20.0438L849.944 20.5238H836.024L835.544 21.0038V33.9638L835.064 34.4438H829.304L828.824 33.9638V1.32384L829.304 0.843845H850.904L851.384 1.32384V6.12385Z" fill="black"/>
<path d="M426.965 61.6275C426.954 61.3755 426.943 61.1236 426.932 60.8826C425.935 40.0576 418.179 24.7867 405.176 14.8398C404.869 14.6097 404.562 14.3797 404.255 14.1715C391.953 5.15576 375.149 0.751953 355.058 0.751953H235.289L232.156 3.88501V221.096L235.289 224.229H264.714L267.847 221.096V133.458L270.969 130.325H355.058C373.44 130.325 389.784 126.118 402.251 117.519C402.831 117.124 403.39 116.73 403.949 116.314C415.769 107.528 423.777 94.5684 426.242 77.2599C426.329 76.6465 426.406 76.022 426.483 75.3867C426.559 74.7622 426.625 74.1269 426.68 73.4915C426.724 73.0424 426.767 72.5932 426.789 72.1441C426.965 69.9969 427.041 67.795 427.041 65.5384C427.041 64.2128 427.019 62.9092 426.965 61.6275ZM270.969 97.7782L267.847 94.6451V36.4316L270.98 33.2985H352.867C380.933 33.2985 391.362 42.0404 391.362 65.5384C391.362 89.0363 380.933 97.7782 352.867 97.7782H270.969Z" fill="black"/>
<path d="M499.96 221.096L496.827 224.229H467.402L464.269 221.096V3.88501L467.413 0.751953H496.838L499.971 3.88501V221.096H499.96Z" fill="black"/>
<path d="M172.324 224.229L166.375 220.932L110.101 133.392L103.988 130.336H38.84L35.707 133.469V221.107L32.5849 224.24H3.1604L0.0273438 221.107V3.88501L3.1604 0.751953H120.738C169.267 0.751953 194.912 23.1544 194.912 65.5384C194.912 97.7782 179.138 118.778 149.242 126.436V129.536L191.779 196.36V220.91L188.46 224.229H172.324ZM120.738 97.7782C148.804 97.7782 159.233 89.0363 159.233 65.5384C159.233 42.0404 148.804 33.2985 120.738 33.2985H38.851L35.707 36.4316V94.6451L38.84 97.7782H120.738Z" fill="black"/>
<path d="M496.82 265.572L499.944 268.695V298.444L496.82 301.567H3.12328L0 298.444V268.695L3.12328 265.572H496.831H496.82Z" fill="black"/>
</svg>
