<svg width="1498" height="303" viewBox="0 0 1498 303" fill="none" xmlns="http://www.w3.org/2000/svg">
<path d="M625.844 224.238L625.024 225.058H617.644L616.824 224.238L612.724 213.578L611.084 212.758H590.584L588.944 213.578L584.844 224.238L584.024 225.058H576.644L575.824 224.238V216.038L594.684 168.478L595.504 167.658H606.164L606.984 168.478L625.844 216.038V224.238ZM608.624 202.098L601.244 182.418H600.424L593.044 202.098L593.864 202.918H607.804L608.624 202.098ZM634.076 168.478L634.896 167.658H646.376L648.016 168.478L670.156 206.198H670.976V168.478L671.796 167.658H681.636L682.456 168.478V224.238L681.636 225.058H670.156L668.516 224.238L646.376 186.518H645.556V224.238L644.736 225.058H634.896L634.076 224.238V168.478ZM742.316 196.358C742.316 214.398 734.936 225.058 714.436 225.058H696.396L695.576 224.238V168.478L696.396 167.658H714.436C734.936 167.658 742.316 178.318 742.316 196.358ZM730.836 196.358C730.836 183.238 726.736 177.498 715.256 177.498H707.876L707.056 178.318V214.398L707.876 215.218H715.256C726.736 215.218 730.836 209.478 730.836 196.358ZM816.17 208.658C816.17 217.678 809.61 225.878 792.39 225.878C775.99 225.878 768.61 217.678 768.61 207.018L769.43 206.198H779.27L780.09 207.018C780.09 212.758 783.37 216.038 793.21 216.038C800.59 216.038 804.69 213.578 804.69 208.658C804.69 202.918 801.41 201.278 789.93 199.638C778.45 197.998 769.43 193.898 769.43 182.418C769.43 174.218 775.99 166.838 791.57 166.838C807.15 166.838 813.71 174.218 813.71 184.058L812.89 184.878H803.05L802.23 184.058C802.23 179.138 799.77 176.678 790.75 176.678C783.37 176.678 780.91 179.138 780.91 182.418C780.91 187.338 784.19 188.978 795.67 190.618C807.15 192.258 816.17 197.178 816.17 208.658ZM867.023 196.358C867.023 184.878 861.283 176.678 850.623 176.678C839.963 176.678 834.223 184.878 834.223 196.358C834.223 207.838 839.963 216.038 850.623 216.038C861.283 216.038 867.023 207.838 867.023 196.358ZM878.503 196.358C878.503 213.578 867.843 225.878 850.623 225.878C833.403 225.878 822.743 213.578 822.743 196.358C822.743 179.138 833.403 166.838 850.623 166.838C867.843 166.838 878.503 179.138 878.503 196.358ZM912.924 216.038C919.484 216.038 923.584 213.578 925.224 207.838L926.044 207.018H935.884L936.704 207.838C935.064 219.318 926.044 225.878 912.924 225.878C894.884 225.878 885.044 213.578 885.044 196.358C885.044 179.138 894.884 166.838 912.924 166.838C926.044 166.838 935.064 173.398 936.704 184.058L935.884 184.878H926.044L925.224 184.058C923.584 179.138 919.484 176.678 912.924 176.678C901.444 176.678 896.524 184.878 896.524 196.358C896.524 207.838 901.444 216.038 912.924 216.038ZM958.02 224.238L957.2 225.058H947.36L946.54 224.238V168.478L947.36 167.658H957.2L958.02 168.478V224.238ZM1016.22 224.238L1015.4 225.058H1008.02L1007.2 224.238L1003.1 213.578L1001.46 212.758H980.964L979.324 213.578L975.224 224.238L974.404 225.058H967.024L966.204 224.238V216.038L985.064 168.478L985.884 167.658H996.544L997.364 168.478L1016.22 216.038V224.238ZM999.004 202.098L991.624 182.418H990.804L983.424 202.098L984.244 202.918H998.184L999.004 202.098ZM1063 224.238L1062.18 225.058H1025.28L1024.46 224.238V168.478L1025.28 167.658H1035.12L1035.94 168.478V214.398L1036.76 215.218H1062.18L1063 216.038V224.238ZM1133.52 208.658C1133.52 217.678 1126.96 225.878 1109.74 225.878C1093.34 225.878 1085.96 217.678 1085.96 207.018L1086.78 206.198H1096.62L1097.44 207.018C1097.44 212.758 1100.72 216.038 1110.56 216.038C1117.94 216.038 1122.04 213.578 1122.04 208.658C1122.04 202.918 1118.76 201.278 1107.28 199.638C1095.8 197.998 1086.78 193.898 1086.78 182.418C1086.78 174.218 1093.34 166.838 1108.92 166.838C1124.5 166.838 1131.06 174.218 1131.06 184.058L1130.24 184.878H1120.4L1119.58 184.058C1119.58 179.138 1117.12 176.678 1108.1 176.678C1100.72 176.678 1098.26 179.138 1098.26 182.418C1098.26 187.338 1101.54 188.978 1113.02 190.618C1124.5 192.258 1133.52 197.178 1133.52 208.658ZM1167.97 216.038C1174.53 216.038 1178.63 213.578 1180.27 207.838L1181.09 207.018H1190.93L1191.75 207.838C1190.11 219.318 1181.09 225.878 1167.97 225.878C1149.93 225.878 1140.09 213.578 1140.09 196.358C1140.09 179.138 1149.93 166.838 1167.97 166.838C1181.09 166.838 1190.11 173.398 1191.75 184.058L1190.93 184.878H1181.09L1180.27 184.058C1178.63 179.138 1174.53 176.678 1167.97 176.678C1156.49 176.678 1151.57 184.878 1151.57 196.358C1151.57 207.838 1156.49 216.038 1167.97 216.038ZM1213.07 224.238L1212.25 225.058H1202.41L1201.59 224.238V168.478L1202.41 167.658H1212.25L1213.07 168.478V224.238ZM1266.35 224.238L1265.53 225.058H1226.99L1226.17 224.238V168.478L1226.99 167.658H1265.53L1266.35 168.478V176.678L1265.53 177.498H1238.47L1237.65 178.318V189.798L1238.47 190.618H1263.89L1264.71 191.438V199.638L1263.89 200.458H1238.47L1237.65 201.278V214.398L1238.47 215.218H1265.53L1266.35 216.038V224.238ZM1277.82 168.478L1278.64 167.658H1290.12L1291.76 168.478L1313.9 206.198H1314.72V168.478L1315.54 167.658H1325.38L1326.2 168.478V224.238L1325.38 225.058H1313.9L1312.26 224.238L1290.12 186.518H1289.3V224.238L1288.48 225.058H1278.64L1277.82 224.238V168.478ZM1363.92 216.038C1370.48 216.038 1374.58 213.578 1376.22 207.838L1377.04 207.018H1386.88L1387.7 207.838C1386.06 219.318 1377.04 225.878 1363.92 225.878C1345.88 225.878 1336.04 213.578 1336.04 196.358C1336.04 179.138 1345.88 166.838 1363.92 166.838C1377.04 166.838 1386.06 173.398 1387.7 184.058L1386.88 184.878H1377.04L1376.22 184.058C1374.58 179.138 1370.48 176.678 1363.92 176.678C1352.44 176.678 1347.52 184.878 1347.52 196.358C1347.52 207.838 1352.44 216.038 1363.92 216.038ZM1437.72 224.238L1436.9 225.058H1398.36L1397.54 224.238V168.478L1398.36 167.658H1436.9L1437.72 168.478V176.678L1436.9 177.498H1409.84L1409.02 178.318V189.798L1409.84 190.618H1435.26L1436.08 191.438V199.638L1435.26 200.458H1409.84L1409.02 201.278V214.398L1409.84 215.218H1436.9L1437.72 216.038V224.238ZM1493.47 208.658C1493.47 217.678 1486.91 225.878 1469.69 225.878C1453.29 225.878 1445.91 217.678 1445.91 207.018L1446.73 206.198H1456.57L1457.39 207.018C1457.39 212.758 1460.67 216.038 1470.51 216.038C1477.89 216.038 1481.99 213.578 1481.99 208.658C1481.99 202.918 1478.71 201.278 1467.23 199.638C1455.75 197.998 1446.73 193.898 1446.73 182.418C1446.73 174.218 1453.29 166.838 1468.87 166.838C1484.45 166.838 1491.01 174.218 1491.01 184.058L1490.19 184.878H1480.35L1479.53 184.058C1479.53 179.138 1477.07 176.678 1468.05 176.678C1460.67 176.678 1458.21 179.138 1458.21 182.418C1458.21 187.338 1461.49 188.978 1472.97 190.618C1484.45 192.258 1493.47 197.178 1493.47 208.658Z" fill="black"/>
<path d="M627.484 141.173L626.664 141.993H616.824L616.004 141.173V118.213L615.184 117.393H593.044L592.224 118.213V141.173L591.404 141.993H581.564L580.744 141.173V85.4127L581.564 84.5927H591.404L592.224 85.4127V106.733L593.044 107.553H615.184L616.004 106.733V85.4127L616.824 84.5927H626.664L627.484 85.4127V141.173ZM686.562 85.4127V119.853C686.562 134.613 678.362 142.813 663.602 142.813C648.842 142.813 640.642 134.613 640.642 119.853V85.4127L641.462 84.5927H651.302L652.122 85.4127V119.853C652.122 128.053 655.402 132.973 663.602 132.973C671.802 132.973 675.082 128.053 675.082 119.853V85.4127L675.902 84.5927H685.742L686.562 85.4127ZM761.16 141.173L760.34 141.993H750.5L749.68 141.173V109.193H748.86L735.74 141.173L734.92 141.993H725.9L725.08 141.173L711.96 109.193H711.14V141.173L710.32 141.993H700.48L699.66 141.173V85.4127L700.48 84.5927H712.78L713.6 85.4127L730 125.593H730.82L747.22 85.4127L748.04 84.5927H760.34L761.16 85.4127V141.173ZM819.392 141.173L818.572 141.993H811.192L810.372 141.173L806.272 130.513L804.632 129.693H784.132L782.492 130.513L778.392 141.173L777.572 141.993H770.192L769.372 141.173V132.973L788.232 85.4127L789.052 84.5927H799.712L800.532 85.4127L819.392 132.973V141.173ZM802.172 119.033L794.792 99.3527H793.972L786.592 119.033L787.412 119.853H801.352L802.172 119.033ZM827.624 85.4127L828.444 84.5927H839.924L841.564 85.4127L863.704 123.133H864.524V85.4127L865.344 84.5927H875.184L876.004 85.4127V141.173L875.184 141.993H863.704L862.064 141.173L839.924 103.453H839.104V141.173L838.284 141.993H828.444L827.624 141.173V85.4127ZM900.604 141.173L899.784 141.993H889.944L889.124 141.173V85.4127L889.944 84.5927H899.784L900.604 85.4127V141.173ZM956.348 93.6127L955.528 94.4327H939.128L938.308 95.2527V141.173L937.488 141.993H927.648L926.828 141.173V95.2527L926.008 94.4327H909.608L908.788 93.6127V85.4127L909.608 84.5927H955.528L956.348 85.4127V93.6127ZM976.038 141.173L975.218 141.993H965.378L964.558 141.173V85.4127L965.378 84.5927H975.218L976.038 85.4127V141.173ZM1029.32 141.173L1028.5 141.993H989.962L989.142 141.173V85.4127L989.962 84.5927H1028.5L1029.32 85.4127V93.6127L1028.5 94.4327H1001.44L1000.62 95.2527V106.733L1001.44 107.553H1026.86L1027.68 108.373V116.573L1026.86 117.393H1001.44L1000.62 118.213V131.333L1001.44 132.153H1028.5L1029.32 132.973V141.173ZM1085.07 125.593C1085.07 134.613 1078.51 142.813 1061.29 142.813C1044.89 142.813 1037.51 134.613 1037.51 123.953L1038.33 123.133H1048.17L1048.99 123.953C1048.99 129.693 1052.27 132.973 1062.11 132.973C1069.49 132.973 1073.59 130.513 1073.59 125.593C1073.59 119.853 1070.31 118.213 1058.83 116.573C1047.35 114.933 1038.33 110.833 1038.33 99.3527C1038.33 91.1527 1044.89 83.7727 1060.47 83.7727C1076.05 83.7727 1082.61 91.1527 1082.61 100.993L1081.79 101.813H1071.95L1071.13 100.993C1071.13 96.0727 1068.67 93.6127 1059.65 93.6127C1052.27 93.6127 1049.81 96.0727 1049.81 99.3527C1049.81 104.273 1053.09 105.913 1064.57 107.553C1076.05 109.193 1085.07 114.113 1085.07 125.593ZM1106.44 141.993L1105.62 144.453L1099.06 152.653L1097.42 153.473H1092.5V151.833L1097.42 143.633V142.813L1096.6 141.993H1094.14L1093.32 141.173V130.513L1094.14 129.693H1105.62L1106.44 130.513V141.993ZM1184.39 141.173L1183.57 141.993H1176.19L1175.37 141.173L1171.27 130.513L1169.63 129.693H1149.13L1147.49 130.513L1143.39 141.173L1142.57 141.993H1135.19L1134.37 141.173V132.973L1153.23 85.4127L1154.05 84.5927H1164.71L1165.53 85.4127L1184.39 132.973V141.173ZM1167.17 119.033L1159.79 99.3527H1158.97L1151.59 119.033L1152.41 119.853H1166.35L1167.17 119.033ZM1240.18 101.813C1240.18 110.833 1234.44 116.573 1227.88 118.213V119.033L1238.54 132.973V141.173L1237.72 141.993H1232.8L1231.16 141.173L1214.76 119.853L1213.12 119.033H1204.92L1204.1 119.853V141.173L1203.28 141.993H1193.44L1192.62 141.173V85.4127L1193.44 84.5927H1220.5C1231.98 84.5927 1240.18 90.3327 1240.18 101.813ZM1228.7 101.813C1228.7 96.0727 1225.42 94.4327 1220.5 94.4327H1204.92L1204.1 95.2527V108.373L1204.92 109.193H1220.5C1225.42 109.193 1228.7 107.553 1228.7 101.813ZM1291.88 93.6127L1291.06 94.4327H1274.66L1273.84 95.2527V141.173L1273.02 141.993H1263.18L1262.36 141.173V95.2527L1261.54 94.4327H1245.14L1244.32 93.6127V85.4127L1245.14 84.5927H1291.06L1291.88 85.4127V93.6127ZM1343.56 125.593C1343.56 134.613 1337 142.813 1319.78 142.813C1303.38 142.813 1296 134.613 1296 123.953L1296.82 123.133H1306.66L1307.48 123.953C1307.48 129.693 1310.76 132.973 1320.6 132.973C1327.98 132.973 1332.08 130.513 1332.08 125.593C1332.08 119.853 1328.8 118.213 1317.32 116.573C1305.84 114.933 1296.82 110.833 1296.82 99.3527C1296.82 91.1527 1303.38 83.7727 1318.96 83.7727C1334.54 83.7727 1341.1 91.1527 1341.1 100.993L1340.28 101.813H1330.44L1329.62 100.993C1329.62 96.0727 1327.16 93.6127 1318.14 93.6127C1310.76 93.6127 1308.3 96.0727 1308.3 99.3527C1308.3 104.273 1311.58 105.913 1323.06 107.553C1334.54 109.193 1343.56 114.113 1343.56 125.593ZM1364.94 141.993L1364.12 144.453L1357.56 152.653L1355.92 153.473H1351V151.833L1355.92 143.633V142.813L1355.1 141.993H1352.64L1351.82 141.173V130.513L1352.64 129.693H1364.12L1364.94 130.513V141.993Z" fill="black"/>
<path d="M625.024 42.5272C625.024 51.5472 618.464 59.7472 601.244 59.7472C584.844 59.7472 577.464 51.5472 577.464 40.8872L578.284 40.0672H588.124L588.944 40.8872C588.944 46.6272 592.224 49.9072 602.064 49.9072C609.444 49.9072 613.544 47.4472 613.544 42.5272C613.544 36.7872 610.264 35.1472 598.784 33.5072C587.304 31.8672 578.284 27.7672 578.284 16.2872C578.284 8.08725 584.844 0.707243 600.424 0.707243C616.004 0.707243 622.564 8.08725 622.564 17.9272L621.744 18.7472H611.904L611.084 17.9272C611.084 13.0072 608.624 10.5472 599.604 10.5472C592.224 10.5472 589.764 13.0072 589.764 16.2872C589.764 21.2072 593.044 22.8472 604.524 24.4872C616.004 26.1272 625.024 31.0472 625.024 42.5272ZM659.476 49.9072C666.036 49.9072 670.136 47.4472 671.776 41.7072L672.596 40.8872H682.436L683.256 41.7072C681.616 53.1872 672.596 59.7472 659.476 59.7472C641.436 59.7472 631.596 47.4472 631.596 30.2272C631.596 13.0072 641.436 0.707243 659.476 0.707243C672.596 0.707243 681.616 7.26724 683.256 17.9272L682.436 18.7472H672.596L671.776 17.9272C670.136 13.0072 666.036 10.5472 659.476 10.5472C647.996 10.5472 643.076 18.7472 643.076 30.2272C643.076 41.7072 647.996 49.9072 659.476 49.9072ZM739.833 58.1072L739.013 58.9272H729.173L728.353 58.1072V35.1472L727.533 34.3272H705.393L704.573 35.1472V58.1072L703.753 58.9272H693.913L693.093 58.1072V2.34724L693.913 1.52724H703.753L704.573 2.34724V23.6672L705.393 24.4872H727.533L728.353 23.6672V2.34724L729.173 1.52724H739.013L739.833 2.34724V58.1072ZM793.992 30.2272C793.992 18.7472 788.252 10.5472 777.592 10.5472C766.932 10.5472 761.192 18.7472 761.192 30.2272C761.192 41.7072 766.932 49.9072 777.592 49.9072C788.252 49.9072 793.992 41.7072 793.992 30.2272ZM805.472 30.2272C805.472 47.4472 794.812 59.7472 777.592 59.7472C760.372 59.7472 749.712 47.4472 749.712 30.2272C749.712 13.0072 760.372 0.707243 777.592 0.707243C794.812 0.707243 805.472 13.0072 805.472 30.2272ZM856.292 30.2272C856.292 18.7472 850.552 10.5472 839.892 10.5472C829.232 10.5472 823.492 18.7472 823.492 30.2272C823.492 41.7072 829.232 49.9072 839.892 49.9072C850.552 49.9072 856.292 41.7072 856.292 30.2272ZM867.772 30.2272C867.772 47.4472 857.112 59.7472 839.892 59.7472C822.672 59.7472 812.012 47.4472 812.012 30.2272C812.012 13.0072 822.672 0.707243 839.892 0.707243C857.112 0.707243 867.772 13.0072 867.772 30.2272ZM916.133 58.1072L915.313 58.9272H878.413L877.593 58.1072V2.34724L878.413 1.52724H888.253L889.073 2.34724V48.2672L889.893 49.0872H915.313L916.133 49.9072V58.1072ZM983.376 30.2272C983.376 18.7472 977.636 10.5472 966.976 10.5472C956.316 10.5472 950.576 18.7472 950.576 30.2272C950.576 41.7072 956.316 49.9072 966.976 49.9072C977.636 49.9072 983.376 41.7072 983.376 30.2272ZM994.856 30.2272C994.856 47.4472 984.196 59.7472 966.976 59.7472C949.756 59.7472 939.096 47.4472 939.096 30.2272C939.096 13.0072 949.756 0.707243 966.976 0.707243C984.196 0.707243 994.856 13.0072 994.856 30.2272ZM1043.22 10.5472L1042.4 11.3672H1016.98L1016.16 12.1872V24.4872L1016.98 25.3072H1040.76L1041.58 26.1272V34.3272L1040.76 35.1472H1016.98L1016.16 35.9672V58.1072L1015.34 58.9272H1005.5L1004.68 58.1072V2.34724L1005.5 1.52724H1042.4L1043.22 2.34724V10.5472Z" fill="black"/>
<path d="M426.985 62.482C426.974 62.23 426.964 61.978 426.953 61.737C425.956 40.9097 418.199 25.637 405.194 15.689C404.887 15.4589 404.58 15.2289 404.274 15.0207C391.97 6.00392 375.164 1.59961 355.07 1.59961H235.288L232.155 4.73302V221.968L235.288 225.102H264.716L267.85 221.968V134.32L270.972 131.187H355.07C373.454 131.187 389.801 126.98 402.269 118.379C402.849 117.985 403.408 117.591 403.967 117.174C415.788 108.388 423.797 95.4267 426.262 78.1162C426.35 77.5027 426.427 76.8782 426.503 76.2427C426.58 75.6182 426.646 74.9828 426.701 74.3473C426.744 73.8981 426.788 73.4489 426.81 72.9997C426.985 70.8524 427.062 68.6502 427.062 66.3933C427.062 65.0676 427.04 63.7639 426.985 62.482ZM270.972 98.6368L267.85 95.5033V37.2832L270.983 34.1498H352.879C380.948 34.1498 391.378 42.8927 391.378 66.3933C391.378 89.8939 380.948 98.6368 352.879 98.6368H270.972Z" fill="black"/>
<path d="M499.989 221.968L496.856 225.102H467.428L464.294 221.968V4.73302L467.439 1.59961H496.866L500 4.73302V221.968H499.989Z" fill="black"/>
<path d="M172.316 225.102L166.367 221.804L110.086 134.255L103.972 131.198H38.8171L35.6836 134.331V221.979L32.5612 225.113H3.13341L0 221.979V4.73302L3.13341 1.59961H120.724C169.259 1.59961 194.907 24.0046 194.907 66.3933C194.907 98.6368 179.13 119.639 149.232 127.298V130.398L191.774 197.23V221.782L188.454 225.102H172.316ZM120.724 98.6368C148.793 98.6368 159.223 89.8939 159.223 66.3933C159.223 42.8927 148.793 34.1498 120.724 34.1498H38.828L35.6836 37.2832V95.5033L38.8171 98.6368H120.724Z" fill="black"/>
<path d="M496.876 266.415L500 269.539V299.291L496.876 302.415H3.12364L0 299.291V269.539L3.12364 266.415H496.887H496.876Z" fill="black"/>
</svg>
