<svg width="500" height="302" viewBox="0 0 500 302" fill="none" xmlns="http://www.w3.org/2000/svg">
<path d="M426.985 61.4229C426.974 61.1709 426.963 60.919 426.953 60.6779C425.956 39.8506 418.199 24.578 405.194 14.6299C404.887 14.3998 404.58 14.1698 404.274 13.9616C391.97 4.94483 375.164 0.540527 355.07 0.540527H235.288L232.155 3.67394V220.909L235.288 224.043H264.716L267.85 220.909V133.261L270.972 130.128H355.07C373.454 130.128 389.801 125.921 402.269 117.32C402.849 116.926 403.408 116.532 403.967 116.115C415.788 107.329 423.797 94.3676 426.262 77.0571C426.35 76.4436 426.427 75.8191 426.503 75.1836C426.58 74.5592 426.646 73.9237 426.7 73.2883C426.744 72.8391 426.788 72.3899 426.81 71.9407C426.985 69.7933 427.062 67.5912 427.062 65.3342C427.062 64.0085 427.04 62.7048 426.985 61.4229ZM270.972 97.5777L267.85 94.4443V36.2242L270.983 33.0908H352.879C380.948 33.0908 391.378 41.8336 391.378 65.3342C391.378 88.8348 380.948 97.5777 352.879 97.5777H270.972Z" fill="black"/>
<path d="M499.989 220.909L496.856 224.043H467.428L464.294 220.909V3.67394L467.439 0.540527H496.866L500 3.67394V220.909H499.989Z" fill="black"/>
<path d="M172.316 224.043L166.367 220.745L110.086 133.196L103.972 130.139H38.8171L35.6836 133.272V220.92L32.5612 224.054H3.13341L0 220.92V3.67394L3.13341 0.540527H120.724C169.259 0.540527 194.907 22.9455 194.907 65.3342C194.907 97.5777 179.13 118.58 149.232 126.239V129.339L191.774 196.171V220.723L188.454 224.043H172.316ZM120.724 97.5777C148.793 97.5777 159.223 88.8348 159.223 65.3342C159.223 41.8336 148.793 33.0908 120.724 33.0908H38.828L35.6836 36.2242V94.4443L38.8171 97.5777H120.724Z" fill="black"/>
<path d="M5.05078 283.356H10.1006V265.504H15.1514V301.356H0V265.504H5.05078V283.356ZM35.3535 283.356H40.4043V265.504H45.4541V301.356H30.3027V265.504H35.3535V283.356ZM65.6572 283.356H70.708V265.504H75.7588V301.356H60.6064V283.356H60.6074V265.504H65.6572V283.356ZM95.9609 283.356H101.011V265.504H106.062V301.356H90.9102V265.504H95.9609V283.356ZM126.262 283.356H131.312V265.504H136.362V301.356H121.211V265.504H126.262V283.356ZM156.565 283.356H161.616V265.504H166.667V301.356H151.515V283.356H151.516V265.504H156.565V283.356ZM186.869 283.356H191.919V265.504H196.97V301.356H181.818V265.504H186.869V283.356ZM217.172 283.356H222.223V265.504H227.272V301.356H212.121V265.504H217.172V283.356ZM247.476 283.356H252.526V265.504H257.577V301.356H242.425V265.504H247.476V283.356ZM277.778 283.356H282.829V265.504H287.88V301.356H272.729V265.504H277.778V283.356ZM308.08 283.356H313.13V265.504H318.181V301.356H303.029V265.504H308.08V283.356ZM338.383 283.356H343.434V265.504H348.483V301.356H333.332V265.504H338.383V283.356ZM368.687 283.356H373.737V265.504H378.788V301.356H363.636V283.356H363.637V265.504H368.687V283.356ZM398.99 283.356H404.04V265.504H409.091V301.356H393.939V265.504H398.99V283.356ZM429.293 283.356H434.344V265.504H439.394V301.356H424.242V265.504H429.293V283.356ZM459.597 283.356H464.647V265.504H469.698V301.356H454.546V283.356H454.547V265.504H459.597V283.356ZM489.9 283.356H494.95V265.504H500.001V301.356H484.85V265.504H489.9V283.356ZM25.2529 283.504H20.2021V265.504H25.2529V283.504ZM55.5557 283.504H50.5049V265.504H55.5557V283.504ZM85.8594 283.504H80.8086V265.504H85.8594V283.504ZM116.162 283.504H111.112V265.504H116.162V283.504ZM146.464 283.504H141.413V265.504H146.464V283.504ZM176.768 283.504H171.717V265.504H176.768V283.504ZM207.07 283.504H202.021V265.504H207.07V283.504ZM237.374 283.504H232.323V265.504H237.374V283.504ZM267.678 283.504H262.627V265.504H267.678V283.504ZM297.98 283.504H292.931V265.504H297.98V283.504ZM328.282 283.504H323.231V265.504H328.282V283.504ZM358.585 283.504H353.534V265.504H358.585V283.504ZM388.889 283.504H383.839V265.504H388.889V283.504ZM419.192 283.504H414.142V265.504H419.192V283.504ZM449.495 283.504H444.444V265.504H449.495V283.504ZM479.799 283.504H474.748V265.504H479.799V283.504Z" fill="black"/>
</svg>
