<svg width="855" height="302" viewBox="0 0 855 302" fill="none" xmlns="http://www.w3.org/2000/svg">
<path d="M606.944 72.2477C606.944 77.5277 603.104 82.3277 593.024 82.3277C583.424 82.3277 579.104 77.5277 579.104 71.2877L579.584 70.8077H585.344L585.824 71.2877C585.824 74.6477 587.744 76.5677 593.504 76.5677C597.824 76.5677 600.224 75.1277 600.224 72.2477C600.224 68.8877 598.304 67.9277 591.584 66.9677C584.864 66.0077 579.584 63.6077 579.584 56.8877C579.584 52.0877 583.424 47.7677 592.544 47.7677C601.664 47.7677 605.504 52.0877 605.504 57.8477L605.024 58.3277H599.264L598.784 57.8477C598.784 54.9677 597.344 53.5277 592.064 53.5277C587.744 53.5277 586.304 54.9677 586.304 56.8877C586.304 59.7677 588.224 60.7277 594.944 61.6877C601.664 62.6477 606.944 65.5277 606.944 72.2477ZM627.111 76.5677C630.951 76.5677 633.351 75.1277 634.311 71.7677L634.791 71.2877H640.551L641.031 71.7677C640.071 78.4877 634.791 82.3277 627.111 82.3277C616.551 82.3277 610.791 75.1277 610.791 65.0477C610.791 54.9677 616.551 47.7677 627.111 47.7677C634.791 47.7677 640.071 51.6077 641.031 57.8477L640.551 58.3277H634.791L634.311 57.8477C633.351 54.9677 630.951 53.5277 627.111 53.5277C620.391 53.5277 617.511 58.3277 617.511 65.0477C617.511 71.7677 620.391 76.5677 627.111 76.5677ZM653.509 81.3677L653.029 81.8477H647.269L646.789 81.3677V48.7277L647.269 48.2477H653.029L653.509 48.7277V81.3677ZM684.7 81.3677L684.22 81.8477H661.66L661.18 81.3677V48.7277L661.66 48.2477H684.22L684.7 48.7277V53.5277L684.22 54.0077H668.38L667.9 54.4877V61.2077L668.38 61.6877H683.26L683.74 62.1677V66.9677L683.26 67.4477H668.38L667.9 67.9277V75.6077L668.38 76.0877H684.22L684.7 76.5677V81.3677ZM691.414 48.7277L691.894 48.2477H698.614L699.574 48.7277L712.534 70.8077H713.014V48.7277L713.494 48.2477H719.254L719.734 48.7277V81.3677L719.254 81.8477H712.534L711.574 81.3677L698.614 59.2877H698.134V81.3677L697.654 81.8477H691.894L691.414 81.3677V48.7277ZM741.814 76.5677C745.654 76.5677 748.054 75.1277 749.014 71.7677L749.494 71.2877H755.254L755.734 71.7677C754.774 78.4877 749.494 82.3277 741.814 82.3277C731.254 82.3277 725.494 75.1277 725.494 65.0477C725.494 54.9677 731.254 47.7677 741.814 47.7677C749.494 47.7677 754.774 51.6077 755.734 57.8477L755.254 58.3277H749.494L749.014 57.8477C748.054 54.9677 745.654 53.5277 741.814 53.5277C735.094 53.5277 732.214 58.3277 732.214 65.0477C732.214 71.7677 735.094 76.5677 741.814 76.5677ZM785.012 81.3677L784.532 81.8477H761.972L761.492 81.3677V48.7277L761.972 48.2477H784.532L785.012 48.7277V53.5277L784.532 54.0077H768.692L768.212 54.4877V61.2077L768.692 61.6877H783.572L784.052 62.1677V66.9677L783.572 67.4477H768.692L768.212 67.9277V75.6077L768.692 76.0877H784.532L785.012 76.5677V81.3677Z" fill="black"/>
<path d="M606.944 24.8009C606.944 30.0809 603.104 34.8809 593.024 34.8809C583.424 34.8809 579.104 30.0809 579.104 23.8409L579.584 23.3609H585.344L585.824 23.8409C585.824 27.2009 587.744 29.1209 593.504 29.1209C597.824 29.1209 600.224 27.6809 600.224 24.8009C600.224 21.4409 598.304 20.4809 591.584 19.5209C584.864 18.5609 579.584 16.1609 579.584 9.44088C579.584 4.64088 583.424 0.320877 592.544 0.320877C601.664 0.320877 605.504 4.64088 605.504 10.4009L605.024 10.8809H599.264L598.784 10.4009C598.784 7.52088 597.344 6.08088 592.064 6.08088C587.744 6.08088 586.304 7.52088 586.304 9.44088C586.304 12.3209 588.224 13.2809 594.944 14.2409C601.664 15.2009 606.944 18.0809 606.944 24.8009ZM627.111 29.1209C630.951 29.1209 633.351 27.6809 634.311 24.3209L634.791 23.8409H640.551L641.031 24.3209C640.071 31.0409 634.791 34.8809 627.111 34.8809C616.551 34.8809 610.791 27.6809 610.791 17.6009C610.791 7.52088 616.551 0.320877 627.111 0.320877C634.791 0.320877 640.071 4.16088 641.031 10.4009L640.551 10.8809H634.791L634.311 10.4009C633.351 7.52088 630.951 6.08088 627.111 6.08088C620.391 6.08088 617.511 10.8809 617.511 17.6009C617.511 24.3209 620.391 29.1209 627.111 29.1209ZM674.149 33.9209L673.669 34.4009H667.909L667.429 33.9209V20.4809L666.949 20.0009H653.989L653.509 20.4809V33.9209L653.029 34.4009H647.269L646.789 33.9209V1.28088L647.269 0.800877H653.029L653.509 1.28088V13.7609L653.989 14.2409H666.949L667.429 13.7609V1.28088L667.909 0.800877H673.669L674.149 1.28088V33.9209ZM705.852 17.6009C705.852 10.8809 702.492 6.08088 696.252 6.08088C690.012 6.08088 686.652 10.8809 686.652 17.6009C686.652 24.3209 690.012 29.1209 696.252 29.1209C702.492 29.1209 705.852 24.3209 705.852 17.6009ZM712.572 17.6009C712.572 27.6809 706.332 34.8809 696.252 34.8809C686.172 34.8809 679.932 27.6809 679.932 17.6009C679.932 7.52088 686.172 0.320877 696.252 0.320877C706.332 0.320877 712.572 7.52088 712.572 17.6009ZM742.32 17.6009C742.32 10.8809 738.96 6.08088 732.72 6.08088C726.48 6.08088 723.12 10.8809 723.12 17.6009C723.12 24.3209 726.48 29.1209 732.72 29.1209C738.96 29.1209 742.32 24.3209 742.32 17.6009ZM749.04 17.6009C749.04 27.6809 742.8 34.8809 732.72 34.8809C722.64 34.8809 716.4 27.6809 716.4 17.6009C716.4 7.52088 722.64 0.320877 732.72 0.320877C742.8 0.320877 749.04 7.52088 749.04 17.6009ZM777.349 33.9209L776.869 34.4009H755.269L754.789 33.9209V1.28088L755.269 0.800877H761.029L761.509 1.28088V28.1609L761.989 28.6409H776.869L777.349 29.1209V33.9209ZM816.711 17.6009C816.711 10.8809 813.351 6.08088 807.111 6.08088C800.871 6.08088 797.511 10.8809 797.511 17.6009C797.511 24.3209 800.871 29.1209 807.111 29.1209C813.351 29.1209 816.711 24.3209 816.711 17.6009ZM823.431 17.6009C823.431 27.6809 817.191 34.8809 807.111 34.8809C797.031 34.8809 790.791 27.6809 790.791 17.6009C790.791 7.52088 797.031 0.320877 807.111 0.320877C817.191 0.320877 823.431 7.52088 823.431 17.6009ZM851.74 6.08088L851.26 6.56088H836.38L835.9 7.04088V14.2409L836.38 14.7209H850.3L850.78 15.2009V20.0009L850.3 20.4809H836.38L835.9 20.9609V33.9209L835.42 34.4009H829.66L829.18 33.9209V1.28088L829.66 0.800877H851.26L851.74 1.28088V6.08088Z" fill="black"/>
<path d="M427.32 61.5845C427.309 61.3326 427.298 61.0806 427.287 60.8396C426.29 40.0146 418.534 24.7437 405.531 14.7968C405.224 14.5667 404.918 14.3367 404.611 14.1286C392.309 5.11279 375.504 0.708984 355.413 0.708984H235.645L232.512 3.84204V221.053L235.645 224.186H265.069L268.202 221.053V133.415L271.324 130.282H355.413C373.795 130.282 390.14 126.075 402.606 117.476C403.187 117.081 403.745 116.687 404.304 116.271C416.124 107.485 424.132 94.5255 426.597 77.217C426.685 76.6035 426.761 75.9791 426.838 75.3437C426.915 74.7193 426.98 74.0839 427.035 73.4485C427.079 72.9994 427.123 72.5502 427.145 72.1011C427.32 69.954 427.397 67.7521 427.397 65.4954C427.397 64.1699 427.375 62.8662 427.32 61.5845ZM271.324 97.7352L268.202 94.6022V36.3886L271.335 33.2555H353.222C381.288 33.2555 391.717 41.9974 391.717 65.4954C391.717 88.9933 381.288 97.7352 353.222 97.7352H271.324Z" fill="black"/>
<path d="M500.315 221.053L497.182 224.186H467.758L464.625 221.053V3.84204L467.769 0.708984H497.193L500.326 3.84204V221.053H500.315Z" fill="black"/>
<path d="M172.679 224.186L166.731 220.889L110.456 133.349L104.343 130.293H39.1955L36.0624 133.426V221.064L32.9403 224.197H3.51587L0.382812 221.064V3.84204L3.51587 0.708984H121.093C169.623 0.708984 195.268 23.1115 195.268 65.4954C195.268 97.7352 179.493 118.735 149.598 126.393V129.493L192.135 196.317V220.867L188.816 224.186H172.679ZM121.093 97.7352C149.159 97.7352 159.588 88.9933 159.588 65.4954C159.588 41.9974 149.159 33.2555 121.093 33.2555H39.2065L36.0624 36.3886V94.6022L39.1955 97.7352H121.093Z" fill="black"/>
<path d="M497.176 265.529L500.299 268.652V298.401L497.176 301.524H3.47875L0.355469 298.401V268.652L3.47875 265.529H497.187H497.176Z" fill="black"/>
</svg>
