<svg width="910" height="302" viewBox="0 0 910 302" fill="none" xmlns="http://www.w3.org/2000/svg">
<path d="M604.188 81.3237L603.708 81.8037H581.148L580.668 81.3237V48.6837L581.148 48.2037H603.708L604.188 48.6837V53.4837L603.708 53.9637H587.868L587.388 54.4437V61.1637L587.868 61.6437H602.748L603.228 62.1237V66.9237L602.748 67.4037H587.868L587.388 67.8837V75.5637L587.868 76.0437H603.708L604.188 76.5237V81.3237ZM610.903 48.6837L611.383 48.2037H618.103L619.062 48.6837L632.023 70.7637H632.503V48.6837L632.983 48.2037H638.743L639.223 48.6837V81.3237L638.743 81.8037H632.023L631.062 81.3237L618.103 59.2437H617.623V81.3237L617.143 81.8037H611.383L610.903 81.3237V48.6837ZM675.703 81.3237L675.223 81.8037H670.903L670.423 81.3237L669.943 78.9237H669.463C668.503 79.8837 666.103 82.2837 660.823 82.2837C651.223 82.2837 644.983 75.0837 644.983 65.0037C644.983 54.9237 651.223 47.7237 661.303 47.7237C670.903 47.7237 674.743 53.0037 675.703 57.8037L675.223 58.2837H669.463L668.983 57.8037C668.023 55.8837 666.583 53.4837 661.303 53.4837C655.062 53.4837 651.703 58.2837 651.703 65.0037C651.703 71.7237 655.062 76.5237 661.303 76.5237C666.583 76.5237 668.983 73.6437 668.983 69.8037L668.503 69.3237H660.343L659.863 68.8437V64.0437L660.343 63.5637H675.223L675.703 64.0437V81.3237ZM689.154 81.3237L688.674 81.8037H682.914L682.434 81.3237V48.6837L682.914 48.2037H688.674L689.154 48.6837V81.3237ZM696.824 48.6837L697.304 48.2037H704.024L704.984 48.6837L717.944 70.7637H718.424V48.6837L718.904 48.2037H724.664L725.144 48.6837V81.3237L724.664 81.8037H717.944L716.984 81.3237L704.024 59.2437H703.544V81.3237L703.064 81.8037H697.304L696.824 81.3237V48.6837ZM756.344 81.3237L755.864 81.8037H733.304L732.824 81.3237V48.6837L733.304 48.2037H755.864L756.344 48.6837V53.4837L755.864 53.9637H740.024L739.544 54.4437V61.1637L740.024 61.6437H754.904L755.384 62.1237V66.9237L754.904 67.4037H740.024L739.544 67.8837V75.5637L740.024 76.0437H755.864L756.344 76.5237V81.3237ZM786.579 81.3237L786.099 81.8037H763.539L763.059 81.3237V48.6837L763.539 48.2037H786.099L786.579 48.6837V53.4837L786.099 53.9637H770.259L769.779 54.4437V61.1637L770.259 61.6437H785.139L785.619 62.1237V66.9237L785.139 67.4037H770.259L769.779 67.8837V75.5637L770.259 76.0437H786.099L786.579 76.5237V81.3237ZM821.133 58.2837C821.133 63.5637 817.773 66.9237 813.933 67.8837V68.3637L820.173 76.5237V81.3237L819.693 81.8037H816.813L815.853 81.3237L806.253 68.8437L805.293 68.3637H800.493L800.013 68.8437V81.3237L799.533 81.8037H793.773L793.293 81.3237V48.6837L793.773 48.2037H809.613C816.333 48.2037 821.133 51.5637 821.133 58.2837ZM814.413 58.2837C814.413 54.9237 812.493 53.9637 809.613 53.9637H800.493L800.013 54.4437V62.1237L800.493 62.6037H809.613C812.493 62.6037 814.413 61.6437 814.413 58.2837ZM833.623 81.3237L833.143 81.8037H827.383L826.903 81.3237V48.6837L827.383 48.2037H833.143L833.623 48.6837V81.3237ZM841.293 48.6837L841.773 48.2037H848.493L849.453 48.6837L862.413 70.7637H862.893V48.6837L863.373 48.2037H869.133L869.613 48.6837V81.3237L869.133 81.8037H862.413L861.453 81.3237L848.493 59.2437H848.013V81.3237L847.533 81.8037H841.773L841.293 81.3237V48.6837ZM906.093 81.3237L905.613 81.8037H901.293L900.813 81.3237L900.333 78.9237H899.853C898.893 79.8837 896.493 82.2837 891.213 82.2837C881.613 82.2837 875.373 75.0837 875.373 65.0037C875.373 54.9237 881.613 47.7237 891.693 47.7237C901.293 47.7237 905.133 53.0037 906.093 57.8037L905.613 58.2837H899.853L899.373 57.8037C898.413 55.8837 896.973 53.4837 891.693 53.4837C885.453 53.4837 882.093 58.2837 882.093 65.0037C882.093 71.7237 885.453 76.5237 891.693 76.5237C896.973 76.5237 899.373 73.6437 899.373 69.8037L898.893 69.3237H890.733L890.253 68.8437V64.0437L890.733 63.5637H905.613L906.093 64.0437V81.3237Z" fill="black"/>
<path d="M606.588 24.7569C606.588 30.0369 602.748 34.8369 592.668 34.8369C583.068 34.8369 578.748 30.0369 578.748 23.7969L579.228 23.3169H584.988L585.468 23.7969C585.468 27.1569 587.388 29.0769 593.148 29.0769C597.468 29.0769 599.868 27.6369 599.868 24.7569C599.868 21.3969 597.948 20.4369 591.228 19.4769C584.508 18.5169 579.228 16.1169 579.228 9.39693C579.228 4.59693 583.068 0.276932 592.188 0.276932C601.308 0.276932 605.148 4.59693 605.148 10.3569L604.668 10.8369H598.908L598.428 10.3569C598.428 7.47693 596.988 6.03693 591.708 6.03693C587.388 6.03693 585.948 7.47693 585.948 9.39693C585.948 12.2769 587.868 13.2369 594.588 14.1969C601.308 15.1569 606.588 18.0369 606.588 24.7569ZM626.756 29.0769C630.596 29.0769 632.996 27.6369 633.956 24.2769L634.436 23.7969H640.196L640.676 24.2769C639.716 30.9969 634.436 34.8369 626.756 34.8369C616.196 34.8369 610.436 27.6369 610.436 17.5569C610.436 7.47693 616.196 0.276932 626.756 0.276932C634.436 0.276932 639.716 4.11693 640.676 10.3569L640.196 10.8369H634.436L633.956 10.3569C632.996 7.47693 630.596 6.03693 626.756 6.03693C620.036 6.03693 617.156 10.8369 617.156 17.5569C617.156 24.2769 620.036 29.0769 626.756 29.0769ZM673.794 33.8769L673.314 34.3569H667.554L667.074 33.8769V20.4369L666.594 19.9569H653.634L653.154 20.4369V33.8769L652.674 34.3569H646.914L646.434 33.8769V1.23693L646.914 0.756931H652.674L653.154 1.23693V13.7169L653.634 14.1969H666.594L667.074 13.7169V1.23693L667.554 0.756931H673.314L673.794 1.23693V33.8769ZM705.496 17.5569C705.496 10.8369 702.136 6.03693 695.896 6.03693C689.656 6.03693 686.296 10.8369 686.296 17.5569C686.296 24.2769 689.656 29.0769 695.896 29.0769C702.136 29.0769 705.496 24.2769 705.496 17.5569ZM712.216 17.5569C712.216 27.6369 705.976 34.8369 695.896 34.8369C685.816 34.8369 679.576 27.6369 679.576 17.5569C679.576 7.47693 685.816 0.276932 695.896 0.276932C705.976 0.276932 712.216 7.47693 712.216 17.5569ZM741.965 17.5569C741.965 10.8369 738.605 6.03693 732.365 6.03693C726.125 6.03693 722.765 10.8369 722.765 17.5569C722.765 24.2769 726.125 29.0769 732.365 29.0769C738.605 29.0769 741.965 24.2769 741.965 17.5569ZM748.685 17.5569C748.685 27.6369 742.445 34.8369 732.365 34.8369C722.285 34.8369 716.045 27.6369 716.045 17.5569C716.045 7.47693 722.285 0.276932 732.365 0.276932C742.445 0.276932 748.685 7.47693 748.685 17.5569ZM776.994 33.8769L776.514 34.3569H754.914L754.434 33.8769V1.23693L754.914 0.756931H760.674L761.154 1.23693V28.1169L761.634 28.5969H776.514L776.994 29.0769V33.8769ZM816.356 17.5569C816.356 10.8369 812.996 6.03693 806.756 6.03693C800.516 6.03693 797.156 10.8369 797.156 17.5569C797.156 24.2769 800.516 29.0769 806.756 29.0769C812.996 29.0769 816.356 24.2769 816.356 17.5569ZM823.076 17.5569C823.076 27.6369 816.836 34.8369 806.756 34.8369C796.676 34.8369 790.436 27.6369 790.436 17.5569C790.436 7.47693 796.676 0.276932 806.756 0.276932C816.836 0.276932 823.076 7.47693 823.076 17.5569ZM851.384 6.03693L850.904 6.51693H836.024L835.544 6.99693V14.1969L836.024 14.6769H849.944L850.424 15.1569V19.9569L849.944 20.4369H836.024L835.544 20.9169V33.8769L835.064 34.3569H829.304L828.824 33.8769V1.23693L829.304 0.756931H850.904L851.384 1.23693V6.03693Z" fill="black"/>
<path d="M426.965 61.5406C426.954 61.2886 426.943 61.0367 426.932 60.7957C425.935 39.9707 418.179 24.6998 405.176 14.7528C404.869 14.5228 404.562 14.2927 404.255 14.0846C391.953 5.06885 375.149 0.665039 355.058 0.665039H235.289L232.156 3.7981V221.009L235.289 224.142H264.714L267.847 221.009V133.371L270.969 130.238H355.058C373.44 130.238 389.784 126.031 402.251 117.432C402.831 117.037 403.39 116.643 403.949 116.227C415.769 107.441 423.777 94.4815 426.242 77.173C426.329 76.5595 426.406 75.9351 426.483 75.2998C426.559 74.6753 426.625 74.04 426.68 73.4046C426.724 72.9554 426.767 72.5063 426.789 72.0571C426.965 69.91 427.041 67.7081 427.041 65.4514C427.041 64.1259 427.019 62.8223 426.965 61.5406ZM270.969 97.6913L267.847 94.5582V36.3447L270.98 33.2116H352.867C380.933 33.2116 391.362 41.9535 391.362 65.4514C391.362 88.9494 380.933 97.6913 352.867 97.6913H270.969Z" fill="black"/>
<path d="M499.96 221.009L496.827 224.142H467.402L464.269 221.009V3.7981L467.413 0.665039H496.838L499.971 3.7981V221.009H499.96Z" fill="black"/>
<path d="M172.324 224.142L166.375 220.845L110.101 133.305L103.988 130.249H38.84L35.707 133.382V221.02L32.5849 224.153H3.1604L0.0273438 221.02V3.7981L3.1604 0.665039H120.738C169.267 0.665039 194.912 23.0675 194.912 65.4514C194.912 97.6913 179.138 118.692 149.242 126.349V129.449L191.779 196.273V220.823L188.46 224.142H172.324ZM120.738 97.6913C148.804 97.6913 159.233 88.9494 159.233 65.4514C159.233 41.9535 148.804 33.2116 120.738 33.2116H38.851L35.707 36.3447V94.5582L38.84 97.6913H120.738Z" fill="black"/>
<path d="M496.82 265.485L499.944 268.608V298.357L496.82 301.48H3.12328L0 298.357V268.608L3.12328 265.485H496.831H496.82Z" fill="black"/>
</svg>
