<svg width="1143" height="303" viewBox="0 0 1143 303" fill="none" xmlns="http://www.w3.org/2000/svg">
<path d="M620.924 141.086L620.104 141.906H581.564L580.744 141.086V85.3258L581.564 84.5058H620.104L620.924 85.3258V93.5258L620.104 94.3458H593.044L592.224 95.1658V106.646L593.044 107.466H618.464L619.284 108.286V116.486L618.464 117.306H593.044L592.224 118.126V131.246L593.044 132.066H620.104L620.924 132.886V141.086ZM632.394 85.3258L633.214 84.5058H644.694L646.334 85.3258L668.474 123.046H669.294V85.3258L670.114 84.5058H679.954L680.774 85.3258V141.086L679.954 141.906H668.474L666.834 141.086L644.694 103.366H643.874V141.086L643.054 141.906H633.214L632.394 141.086V85.3258ZM743.094 141.086L742.274 141.906H734.894L734.074 141.086L733.254 136.986H732.434C730.794 138.626 726.694 142.726 717.674 142.726C701.274 142.726 690.614 130.426 690.614 113.206C690.614 95.9858 701.274 83.6858 718.494 83.6858C734.894 83.6858 741.454 92.7058 743.094 100.906L742.274 101.726H732.434L731.614 100.906C729.974 97.6258 727.514 93.5258 718.494 93.5258C707.834 93.5258 702.094 101.726 702.094 113.206C702.094 124.686 707.834 132.886 718.494 132.886C727.514 132.886 731.614 127.966 731.614 121.406L730.794 120.586H716.854L716.034 119.766V111.566L716.854 110.746H742.274L743.094 111.566V141.086ZM766.073 141.086L765.253 141.906H755.413L754.593 141.086V85.3258L755.413 84.5058H765.253L766.073 85.3258V141.086ZM779.177 85.3258L779.997 84.5058H791.477L793.117 85.3258L815.257 123.046H816.077V85.3258L816.897 84.5058H826.737L827.557 85.3258V141.086L826.737 141.906H815.257L813.617 141.086L791.477 103.366H790.657V141.086L789.837 141.906H779.997L779.177 141.086V85.3258ZM880.857 141.086L880.037 141.906H841.497L840.677 141.086V85.3258L841.497 84.5058H880.037L880.857 85.3258V93.5258L880.037 94.3458H852.977L852.157 95.1658V106.646L852.977 107.466H878.397L879.217 108.286V116.486L878.397 117.306H852.977L852.157 118.126V131.246L852.977 132.066H880.037L880.857 132.886V141.086ZM932.508 141.086L931.688 141.906H893.148L892.328 141.086V85.3258L893.148 84.5058H931.688L932.508 85.3258V93.5258L931.688 94.3458H904.628L903.808 95.1658V106.646L904.628 107.466H930.048L930.868 108.286V116.486L930.048 117.306H904.628L903.808 118.126V131.246L904.628 132.066H931.688L932.508 132.886V141.086ZM991.538 101.726C991.538 110.746 985.798 116.486 979.238 118.126V118.946L989.898 132.886V141.086L989.078 141.906H984.158L982.518 141.086L966.118 119.766L964.478 118.946H956.278L955.458 119.766V141.086L954.638 141.906H944.798L943.978 141.086V85.3258L944.798 84.5058H971.858C983.338 84.5058 991.538 90.2458 991.538 101.726ZM980.058 101.726C980.058 95.9858 976.778 94.3458 971.858 94.3458H956.278L955.458 95.1658V108.286L956.278 109.106H971.858C976.778 109.106 980.058 107.466 980.058 101.726ZM1012.87 141.086L1012.05 141.906H1002.21L1001.39 141.086V85.3258L1002.21 84.5058H1012.05L1012.87 85.3258V141.086ZM1025.98 85.3258L1026.8 84.5058H1038.28L1039.92 85.3258L1062.06 123.046H1062.88V85.3258L1063.7 84.5058H1073.54L1074.36 85.3258V141.086L1073.54 141.906H1062.06L1060.42 141.086L1038.28 103.366H1037.46V141.086L1036.64 141.906H1026.8L1025.98 141.086V85.3258ZM1136.68 141.086L1135.86 141.906H1128.48L1127.66 141.086L1126.84 136.986H1126.02C1124.38 138.626 1120.28 142.726 1111.26 142.726C1094.86 142.726 1084.2 130.426 1084.2 113.206C1084.2 95.9858 1094.86 83.6858 1112.08 83.6858C1128.48 83.6858 1135.04 92.7058 1136.68 100.906L1135.86 101.726H1126.02L1125.2 100.906C1123.56 97.6258 1121.1 93.5258 1112.08 93.5258C1101.42 93.5258 1095.68 101.726 1095.68 113.206C1095.68 124.686 1101.42 132.886 1112.08 132.886C1121.1 132.886 1125.2 127.966 1125.2 121.406L1124.38 120.586H1110.44L1109.62 119.766V111.566L1110.44 110.746H1135.86L1136.68 111.566V141.086Z" fill="black"/>
<path d="M625.024 42.4403C625.024 51.4603 618.464 59.6603 601.244 59.6603C584.844 59.6603 577.464 51.4603 577.464 40.8003L578.284 39.9803H588.124L588.944 40.8003C588.944 46.5403 592.224 49.8203 602.064 49.8203C609.444 49.8203 613.544 47.3603 613.544 42.4403C613.544 36.7003 610.264 35.0603 598.784 33.4203C587.304 31.7803 578.284 27.6803 578.284 16.2003C578.284 8.00033 584.844 0.620329 600.424 0.620329C616.004 0.620329 622.564 8.00033 622.564 17.8403L621.744 18.6603H611.904L611.084 17.8403C611.084 12.9203 608.624 10.4603 599.604 10.4603C592.224 10.4603 589.764 12.9203 589.764 16.2003C589.764 21.1203 593.044 22.7603 604.524 24.4003C616.004 26.0403 625.024 30.9603 625.024 42.4403ZM659.476 49.8203C666.036 49.8203 670.136 47.3603 671.776 41.6203L672.596 40.8003H682.436L683.256 41.6203C681.616 53.1003 672.596 59.6603 659.476 59.6603C641.436 59.6603 631.596 47.3603 631.596 30.1403C631.596 12.9203 641.436 0.620329 659.476 0.620329C672.596 0.620329 681.616 7.18033 683.256 17.8403L682.436 18.6603H672.596L671.776 17.8403C670.136 12.9203 666.036 10.4603 659.476 10.4603C647.996 10.4603 643.076 18.6603 643.076 30.1403C643.076 41.6203 647.996 49.8203 659.476 49.8203ZM739.833 58.0203L739.013 58.8403H729.173L728.353 58.0203V35.0603L727.533 34.2403H705.393L704.573 35.0603V58.0203L703.753 58.8403H693.913L693.093 58.0203V2.26033L693.913 1.44033H703.753L704.573 2.26033V23.5803L705.393 24.4003H727.533L728.353 23.5803V2.26033L729.173 1.44033H739.013L739.833 2.26033V58.0203ZM793.992 30.1403C793.992 18.6603 788.252 10.4603 777.592 10.4603C766.932 10.4603 761.192 18.6603 761.192 30.1403C761.192 41.6203 766.932 49.8203 777.592 49.8203C788.252 49.8203 793.992 41.6203 793.992 30.1403ZM805.472 30.1403C805.472 47.3603 794.812 59.6603 777.592 59.6603C760.372 59.6603 749.712 47.3603 749.712 30.1403C749.712 12.9203 760.372 0.620329 777.592 0.620329C794.812 0.620329 805.472 12.9203 805.472 30.1403ZM856.292 30.1403C856.292 18.6603 850.552 10.4603 839.892 10.4603C829.232 10.4603 823.492 18.6603 823.492 30.1403C823.492 41.6203 829.232 49.8203 839.892 49.8203C850.552 49.8203 856.292 41.6203 856.292 30.1403ZM867.772 30.1403C867.772 47.3603 857.112 59.6603 839.892 59.6603C822.672 59.6603 812.012 47.3603 812.012 30.1403C812.012 12.9203 822.672 0.620329 839.892 0.620329C857.112 0.620329 867.772 12.9203 867.772 30.1403ZM916.133 58.0203L915.313 58.8403H878.413L877.593 58.0203V2.26033L878.413 1.44033H888.253L889.073 2.26033V48.1803L889.893 49.0003H915.313L916.133 49.8203V58.0203ZM983.376 30.1403C983.376 18.6603 977.636 10.4603 966.976 10.4603C956.316 10.4603 950.576 18.6603 950.576 30.1403C950.576 41.6203 956.316 49.8203 966.976 49.8203C977.636 49.8203 983.376 41.6203 983.376 30.1403ZM994.856 30.1403C994.856 47.3603 984.196 59.6603 966.976 59.6603C949.756 59.6603 939.096 47.3603 939.096 30.1403C939.096 12.9203 949.756 0.620329 966.976 0.620329C984.196 0.620329 994.856 12.9203 994.856 30.1403ZM1043.22 10.4603L1042.4 11.2803H1016.98L1016.16 12.1003V24.4003L1016.98 25.2203H1040.76L1041.58 26.0403V34.2403L1040.76 35.0603H1016.98L1016.16 35.8803V58.0203L1015.34 58.8403H1005.5L1004.68 58.0203V2.26033L1005.5 1.44033H1042.4L1043.22 2.26033V10.4603Z" fill="black"/>
<path d="M426.985 62.3951C426.974 62.1431 426.963 61.8911 426.953 61.6501C425.956 40.8228 418.199 25.5501 405.194 15.6021C404.887 15.372 404.58 15.1419 404.274 14.9338C391.97 5.917 375.164 1.5127 355.07 1.5127H235.288L232.155 4.64611V221.881L235.288 225.015H264.716L267.85 221.881V134.233L270.972 131.1H355.07C373.454 131.1 389.801 126.893 402.269 118.293C402.849 117.898 403.408 117.504 403.967 117.087C415.788 108.301 423.797 95.3397 426.262 78.0293C426.35 77.4157 426.427 76.7913 426.503 76.1558C426.58 75.5313 426.646 74.8959 426.7 74.2604C426.744 73.8112 426.788 73.362 426.81 72.9128C426.985 70.7655 427.062 68.5633 427.062 66.3064C427.062 64.9807 427.04 63.6769 426.985 62.3951ZM270.972 98.5498L267.85 95.4164V37.1963L270.983 34.0629H352.879C380.948 34.0629 391.378 42.8058 391.378 66.3064C391.378 89.807 380.948 98.5498 352.879 98.5498H270.972Z" fill="black"/>
<path d="M499.989 221.881L496.856 225.015H467.428L464.294 221.881V4.64611L467.439 1.5127H496.866L500 4.64611V221.881H499.989Z" fill="black"/>
<path d="M172.316 225.015L166.367 221.717L110.086 134.168L103.972 131.111H38.8171L35.6836 134.244V221.892L32.5612 225.026H3.13341L0 221.892V4.64611L3.13341 1.5127H120.724C169.259 1.5127 194.907 23.9177 194.907 66.3064C194.907 98.5498 179.13 119.552 149.232 127.211V130.311L191.774 197.143V221.695L188.454 225.015H172.316ZM120.724 98.5498C148.793 98.5498 159.223 89.807 159.223 66.3064C159.223 42.8058 148.793 34.0629 120.724 34.0629H38.828L35.6836 37.1963V95.4164L38.8171 98.5498H120.724Z" fill="black"/>
<path d="M496.876 266.328L500 269.452V299.204L496.876 302.328H3.12364L0 299.204V269.452L3.12364 266.328H496.887H496.876Z" fill="black"/>
</svg>
