<svg width="948" height="302" viewBox="0 0 948 302" fill="none" xmlns="http://www.w3.org/2000/svg">
<path d="M607.068 81.3677L606.588 81.8477H602.268L601.788 81.3677L599.388 75.1277L598.428 74.6477H586.428L585.468 75.1277L583.068 81.3677L582.588 81.8477H578.268L577.788 81.3677V76.5677L588.828 48.7277L589.308 48.2477H595.548L596.028 48.7277L607.068 76.5677V81.3677ZM596.988 68.4077L592.668 56.8877H592.188L587.868 68.4077L588.348 68.8877H596.508L596.988 68.4077ZM639.727 58.3277C639.727 63.6077 636.367 66.9677 632.527 67.9277V68.4077L638.767 76.5677V81.3677L638.287 81.8477H635.407L634.447 81.3677L624.847 68.8877L623.887 68.4077H619.087L618.607 68.8877V81.3677L618.127 81.8477H612.367L611.887 81.3677V48.7277L612.367 48.2477H628.207C634.927 48.2477 639.727 51.6077 639.727 58.3277ZM633.007 58.3277C633.007 54.9677 631.087 54.0077 628.207 54.0077H619.087L618.607 54.4877V62.1677L619.087 62.6477H628.207C631.087 62.6477 633.007 61.6877 633.007 58.3277ZM659.896 76.5677C663.736 76.5677 666.136 75.1277 667.096 71.7677L667.576 71.2877H673.336L673.816 71.7677C672.856 78.4877 667.576 82.3277 659.896 82.3277C649.336 82.3277 643.576 75.1277 643.576 65.0477C643.576 54.9677 649.336 47.7677 659.896 47.7677C667.576 47.7677 672.856 51.6077 673.816 57.8477L673.336 58.3277H667.576L667.096 57.8477C666.136 54.9677 663.736 53.5277 659.896 53.5277C653.176 53.5277 650.296 58.3277 650.296 65.0477C650.296 71.7677 653.176 76.5677 659.896 76.5677ZM706.934 81.3677L706.454 81.8477H700.694L700.214 81.3677V67.9277L699.734 67.4477H686.774L686.294 67.9277V81.3677L685.814 81.8477H680.054L679.574 81.3677V48.7277L680.054 48.2477H685.814L686.294 48.7277V61.2077L686.774 61.6877H699.734L700.214 61.2077V48.7277L700.694 48.2477H706.454L706.934 48.7277V81.3677ZM721.357 81.3677L720.877 81.8477H715.117L714.637 81.3677V48.7277L715.117 48.2477H720.877L721.357 48.7277V81.3677ZM753.988 53.5277L753.508 54.0077H743.908L743.428 54.4877V81.3677L742.948 81.8477H737.188L736.708 81.3677V54.4877L736.228 54.0077H726.628L726.148 53.5277V48.7277L726.628 48.2477H753.508L753.988 48.7277V53.5277ZM782.313 81.3677L781.833 81.8477H759.273L758.793 81.3677V48.7277L759.273 48.2477H781.833L782.313 48.7277V53.5277L781.833 54.0077H765.993L765.513 54.4877V61.2077L765.993 61.6877H780.873L781.353 62.1677V66.9677L780.873 67.4477H765.993L765.513 67.9277V75.6077L765.993 76.0877H781.833L782.313 76.5677V81.3677ZM803.428 76.5677C807.268 76.5677 809.668 75.1277 810.628 71.7677L811.108 71.2877H816.868L817.348 71.7677C816.388 78.4877 811.108 82.3277 803.428 82.3277C792.868 82.3277 787.108 75.1277 787.108 65.0477C787.108 54.9677 792.868 47.7677 803.428 47.7677C811.108 47.7677 816.388 51.6077 817.348 57.8477L816.868 58.3277H811.108L810.628 57.8477C809.668 54.9677 807.268 53.5277 803.428 53.5277C796.708 53.5277 793.828 58.3277 793.828 65.0477C793.828 71.7677 796.708 76.5677 803.428 76.5677ZM847.597 53.5277L847.117 54.0077H837.517L837.037 54.4877V81.3677L836.557 81.8477H830.797L830.317 81.3677V54.4877L829.837 54.0077H820.237L819.757 53.5277V48.7277L820.237 48.2477H847.117L847.597 48.7277V53.5277ZM879.283 48.7277V68.8877C879.283 77.5277 874.483 82.3277 865.843 82.3277C857.203 82.3277 852.403 77.5277 852.403 68.8877V48.7277L852.883 48.2477H858.643L859.123 48.7277V68.8877C859.123 73.6877 861.043 76.5677 865.843 76.5677C870.643 76.5677 872.562 73.6877 872.562 68.8877V48.7277L873.043 48.2477H878.803L879.283 48.7277ZM914.789 58.3277C914.789 63.6077 911.429 66.9677 907.589 67.9277V68.4077L913.829 76.5677V81.3677L913.349 81.8477H910.469L909.509 81.3677L899.909 68.8877L898.949 68.4077H894.149L893.669 68.8877V81.3677L893.189 81.8477H887.429L886.949 81.3677V48.7277L887.429 48.2477H903.269C909.989 48.2477 914.789 51.6077 914.789 58.3277ZM908.069 58.3277C908.069 54.9677 906.149 54.0077 903.269 54.0077H894.149L893.669 54.4877V62.1677L894.149 62.6477H903.269C906.149 62.6477 908.069 61.6877 908.069 58.3277ZM944.079 81.3677L943.599 81.8477H921.039L920.559 81.3677V48.7277L921.039 48.2477H943.599L944.079 48.7277V53.5277L943.599 54.0077H927.759L927.279 54.4877V61.2077L927.759 61.6877H942.639L943.119 62.1677V66.9677L942.639 67.4477H927.759L927.279 67.9277V75.6077L927.759 76.0877H943.599L944.079 76.5677V81.3677Z" fill="black"/>
<path d="M606.588 24.8009C606.588 30.0809 602.748 34.8809 592.668 34.8809C583.068 34.8809 578.748 30.0809 578.748 23.8409L579.228 23.3609H584.988L585.468 23.8409C585.468 27.2009 587.388 29.1209 593.148 29.1209C597.468 29.1209 599.868 27.6809 599.868 24.8009C599.868 21.4409 597.948 20.4809 591.228 19.5209C584.508 18.5609 579.228 16.1609 579.228 9.44088C579.228 4.64088 583.068 0.320877 592.188 0.320877C601.308 0.320877 605.148 4.64088 605.148 10.4009L604.668 10.8809H598.908L598.428 10.4009C598.428 7.52088 596.988 6.08088 591.708 6.08088C587.388 6.08088 585.948 7.52088 585.948 9.44088C585.948 12.3209 587.868 13.2809 594.588 14.2409C601.308 15.2009 606.588 18.0809 606.588 24.8009ZM626.756 29.1209C630.596 29.1209 632.996 27.6809 633.956 24.3209L634.436 23.8409H640.196L640.676 24.3209C639.716 31.0409 634.436 34.8809 626.756 34.8809C616.196 34.8809 610.436 27.6809 610.436 17.6009C610.436 7.52088 616.196 0.320877 626.756 0.320877C634.436 0.320877 639.716 4.16088 640.676 10.4009L640.196 10.8809H634.436L633.956 10.4009C632.996 7.52088 630.596 6.08088 626.756 6.08088C620.036 6.08088 617.156 10.8809 617.156 17.6009C617.156 24.3209 620.036 29.1209 626.756 29.1209ZM673.794 33.9209L673.314 34.4009H667.554L667.074 33.9209V20.4809L666.594 20.0009H653.634L653.154 20.4809V33.9209L652.674 34.4009H646.914L646.434 33.9209V1.28088L646.914 0.800877H652.674L653.154 1.28088V13.7609L653.634 14.2409H666.594L667.074 13.7609V1.28088L667.554 0.800877H673.314L673.794 1.28088V33.9209ZM705.496 17.6009C705.496 10.8809 702.136 6.08088 695.896 6.08088C689.656 6.08088 686.296 10.8809 686.296 17.6009C686.296 24.3209 689.656 29.1209 695.896 29.1209C702.136 29.1209 705.496 24.3209 705.496 17.6009ZM712.216 17.6009C712.216 27.6809 705.976 34.8809 695.896 34.8809C685.816 34.8809 679.576 27.6809 679.576 17.6009C679.576 7.52088 685.816 0.320877 695.896 0.320877C705.976 0.320877 712.216 7.52088 712.216 17.6009ZM741.965 17.6009C741.965 10.8809 738.605 6.08088 732.365 6.08088C726.125 6.08088 722.765 10.8809 722.765 17.6009C722.765 24.3209 726.125 29.1209 732.365 29.1209C738.605 29.1209 741.965 24.3209 741.965 17.6009ZM748.685 17.6009C748.685 27.6809 742.445 34.8809 732.365 34.8809C722.285 34.8809 716.045 27.6809 716.045 17.6009C716.045 7.52088 722.285 0.320877 732.365 0.320877C742.445 0.320877 748.685 7.52088 748.685 17.6009ZM776.994 33.9209L776.514 34.4009H754.914L754.434 33.9209V1.28088L754.914 0.800877H760.674L761.154 1.28088V28.1609L761.634 28.6409H776.514L776.994 29.1209V33.9209ZM816.356 17.6009C816.356 10.8809 812.996 6.08088 806.756 6.08088C800.516 6.08088 797.156 10.8809 797.156 17.6009C797.156 24.3209 800.516 29.1209 806.756 29.1209C812.996 29.1209 816.356 24.3209 816.356 17.6009ZM823.076 17.6009C823.076 27.6809 816.836 34.8809 806.756 34.8809C796.676 34.8809 790.436 27.6809 790.436 17.6009C790.436 7.52088 796.676 0.320877 806.756 0.320877C816.836 0.320877 823.076 7.52088 823.076 17.6009ZM851.384 6.08088L850.904 6.56088H836.024L835.544 7.04088V14.2409L836.024 14.7209H849.944L850.424 15.2009V20.0009L849.944 20.4809H836.024L835.544 20.9609V33.9209L835.064 34.4009H829.304L828.824 33.9209V1.28088L829.304 0.800877H850.904L851.384 1.28088V6.08088Z" fill="black"/>
<path d="M426.965 61.5845C426.954 61.3326 426.943 61.0806 426.932 60.8396C425.935 40.0146 418.179 24.7437 405.176 14.7968C404.869 14.5667 404.562 14.3367 404.255 14.1286C391.953 5.11279 375.149 0.708984 355.058 0.708984H235.289L232.156 3.84204V221.053L235.289 224.186H264.714L267.847 221.053V133.415L270.969 130.282H355.058C373.44 130.282 389.784 126.075 402.251 117.476C402.831 117.081 403.39 116.687 403.949 116.271C415.769 107.485 423.777 94.5255 426.242 77.217C426.329 76.6035 426.406 75.9791 426.483 75.3437C426.559 74.7193 426.625 74.0839 426.68 73.4485C426.724 72.9994 426.767 72.5502 426.789 72.1011C426.965 69.954 427.041 67.7521 427.041 65.4954C427.041 64.1699 427.019 62.8662 426.965 61.5845ZM270.969 97.7352L267.847 94.6022V36.3886L270.98 33.2555H352.867C380.933 33.2555 391.362 41.9974 391.362 65.4954C391.362 88.9933 380.933 97.7352 352.867 97.7352H270.969Z" fill="black"/>
<path d="M499.96 221.053L496.827 224.186H467.402L464.269 221.053V3.84204L467.413 0.708984H496.838L499.971 3.84204V221.053H499.96Z" fill="black"/>
<path d="M172.324 224.186L166.375 220.889L110.101 133.349L103.988 130.293H38.84L35.707 133.426V221.064L32.5849 224.197H3.1604L0.0273438 221.064V3.84204L3.1604 0.708984H120.738C169.267 0.708984 194.912 23.1115 194.912 65.4954C194.912 97.7352 179.138 118.735 149.242 126.393V129.493L191.779 196.317V220.867L188.46 224.186H172.324ZM120.738 97.7352C148.804 97.7352 159.233 88.9933 159.233 65.4954C159.233 41.9974 148.804 33.2555 120.738 33.2555H38.851L35.707 36.3886V94.6022L38.84 97.7352H120.738Z" fill="black"/>
<path d="M496.82 265.529L499.944 268.652V298.401L496.82 301.524H3.12328L0 298.401V268.652L3.12328 265.529H496.831H496.82Z" fill="black"/>
</svg>
