<svg width="500" height="302" viewBox="0 0 500 302" fill="none" xmlns="http://www.w3.org/2000/svg">
<path d="M426.985 61.4229C426.974 61.1709 426.963 60.919 426.953 60.6779C425.956 39.8506 418.199 24.578 405.194 14.6299C404.887 14.3998 404.58 14.1698 404.274 13.9616C391.97 4.94483 375.164 0.540527 355.07 0.540527H235.288L232.155 3.67394V220.909L235.288 224.043H264.716L267.85 220.909V133.261L270.972 130.128H355.07C373.454 130.128 389.801 125.921 402.269 117.32C402.849 116.926 403.408 116.532 403.967 116.115C415.788 107.329 423.797 94.3676 426.262 77.0571C426.35 76.4436 426.427 75.8191 426.503 75.1836C426.58 74.5592 426.646 73.9237 426.7 73.2883C426.744 72.8391 426.788 72.3899 426.81 71.9407C426.985 69.7933 427.062 67.5912 427.062 65.3342C427.062 64.0085 427.04 62.7048 426.985 61.4229ZM270.972 97.5777L267.85 94.4443V36.2242L270.983 33.0908H352.879C380.948 33.0908 391.378 41.8336 391.378 65.3342C391.378 88.8348 380.948 97.5777 352.879 97.5777H270.972Z" fill="black"/>
<path d="M499.989 220.909L496.856 224.043H467.428L464.294 220.909V3.67394L467.439 0.540527H496.866L500 3.67394V220.909H499.989Z" fill="black"/>
<path d="M172.316 224.043L166.367 220.745L110.086 133.196L103.972 130.139H38.8171L35.6836 133.272V220.92L32.5612 224.054H3.13341L0 220.92V3.67394L3.13341 0.540527H120.724C169.259 0.540527 194.907 22.9455 194.907 65.3342C194.907 97.5777 179.13 118.58 149.232 126.239V129.339L191.774 196.171V220.723L188.454 224.043H172.316ZM120.724 97.5777C148.793 97.5777 159.223 88.8348 159.223 65.3342C159.223 41.8336 148.793 33.0908 120.724 33.0908H38.828L35.6836 36.2242V94.4443L38.8171 97.5777H120.724Z" fill="black"/>
<path d="M6 265.356H0V301.356H6V265.356ZM32 265.356H26V301.356H32V265.356ZM58 265.356H52V301.356H58V265.356ZM84 265.356H78V301.356H84V265.356ZM110 265.356H104V301.356H110V265.356ZM136 265.356H130V301.356H136V265.356ZM162 265.356H156V301.356H162V265.356ZM188 265.356H182V301.356H188V265.356ZM214 265.356H208V301.356H214V265.356ZM240 265.356H234V301.356H240V265.356ZM266 265.356H260V301.356H266V265.356ZM292 265.356H286V301.356H292V265.356ZM318 265.356H312V301.356H318V265.356ZM344 265.356H338V301.356H344V265.356ZM370 265.356H364V301.356H370V265.356ZM396 265.356H390V301.356H396V265.356ZM422 265.356H416V301.356H422V265.356ZM448 265.356H442V301.356H448V265.356ZM474 265.356H468V301.356H474V265.356ZM500 265.356H494V301.356H500V265.356ZM19 283.356H13V301.356H19V283.356ZM45 283.356H39V301.356H45V283.356ZM71 283.356H65V301.356H71V283.356ZM97 283.356H91V301.356H97V283.356ZM123 283.356H117V301.356H123V283.356ZM149 283.356H143V301.356H149V283.356ZM175 283.356H169V301.356H175V283.356ZM201 283.356H195V301.356H201V283.356ZM227 283.356H221V301.356H227V283.356ZM253 283.356H247V301.356H253V283.356ZM279 283.356H273V301.356H279V283.356ZM305 283.356H299V301.356H305V283.356ZM331 283.356H325V301.356H331V283.356ZM357 283.356H351V301.356H357V283.356ZM383 283.356H377V301.356H383V283.356ZM409 283.356H403V301.356H409V283.356ZM435 283.356H429V301.356H435V283.356ZM461 283.356H455V301.356H461V283.356ZM487 283.356H481V301.356H487V283.356Z" fill="black"/>
</svg>
