<svg width="1299" height="303" viewBox="0 0 1299 303" fill="none" xmlns="http://www.w3.org/2000/svg">
<path d="M622.099 113.293C622.099 101.813 616.359 93.6127 605.699 93.6127C595.039 93.6127 589.299 101.813 589.299 113.293C589.299 124.773 595.039 132.973 605.699 132.973C616.359 132.973 622.099 124.773 622.099 113.293ZM633.579 113.293C633.579 130.513 622.919 142.813 605.699 142.813C588.479 142.813 577.819 130.513 577.819 113.293C577.819 96.0727 588.479 83.7727 605.699 83.7727C622.919 83.7727 633.579 96.0727 633.579 113.293ZM681.94 93.6127L681.12 94.4327H655.7L654.88 95.2527V107.553L655.7 108.373H679.48L680.3 109.193V117.393L679.48 118.213H655.7L654.88 119.033V141.173L654.06 141.993H644.22L643.4 141.173V85.4127L644.22 84.5927H681.12L681.94 85.4127V93.6127ZM773.767 141.173L772.947 141.993H763.107L762.287 141.173V109.193H761.467L748.347 141.173L747.527 141.993H738.507L737.687 141.173L724.567 109.193H723.747V141.173L722.927 141.993H713.087L712.267 141.173V85.4127L713.087 84.5927H725.387L726.207 85.4127L742.607 125.593H743.427L759.827 85.4127L760.647 84.5927H772.947L773.767 85.4127V141.173ZM832 141.173L831.18 141.993H823.8L822.98 141.173L818.88 130.513L817.24 129.693H796.74L795.1 130.513L791 141.173L790.18 141.993H782.8L781.98 141.173V132.973L800.84 85.4127L801.66 84.5927H812.32L813.14 85.4127L832 132.973V141.173ZM814.78 119.033L807.4 99.3527H806.58L799.2 119.033L800.02 119.853H813.96L814.78 119.033ZM840.232 85.4127L841.052 84.5927H852.532L854.172 85.4127L876.312 123.133H877.132V85.4127L877.952 84.5927H887.792L888.612 85.4127V141.173L887.792 141.993H876.312L874.672 141.173L852.532 103.453H851.712V141.173L850.892 141.993H841.052L840.232 141.173V85.4127ZM946.832 141.173L946.012 141.993H938.632L937.812 141.173L933.712 130.513L932.072 129.693H911.572L909.932 130.513L905.832 141.173L905.012 141.993H897.632L896.812 141.173V132.973L915.672 85.4127L916.492 84.5927H927.152L927.972 85.4127L946.832 132.973V141.173ZM929.612 119.033L922.232 99.3527H921.412L914.032 119.033L914.852 119.853H928.792L929.612 119.033ZM1002.66 141.173L1001.84 141.993H994.462L993.642 141.173L992.822 137.073H992.002C990.362 138.713 986.262 142.813 977.242 142.813C960.842 142.813 950.182 130.513 950.182 113.293C950.182 96.0727 960.842 83.7727 978.062 83.7727C994.462 83.7727 1001.02 92.7927 1002.66 100.993L1001.84 101.813H992.002L991.182 100.993C989.542 97.7127 987.082 93.6127 978.062 93.6127C967.402 93.6127 961.662 101.813 961.662 113.293C961.662 124.773 967.402 132.973 978.062 132.973C987.082 132.973 991.182 128.053 991.182 121.493L990.362 120.673H976.422L975.602 119.853V111.653L976.422 110.833H1001.84L1002.66 111.653V141.173ZM1054.34 141.173L1053.52 141.993H1014.98L1014.16 141.173V85.4127L1014.98 84.5927H1053.52L1054.34 85.4127V93.6127L1053.52 94.4327H1026.46L1025.64 95.2527V106.733L1026.46 107.553H1051.88L1052.7 108.373V116.573L1051.88 117.393H1026.46L1025.64 118.213V131.333L1026.46 132.153H1053.52L1054.34 132.973V141.173ZM1127.31 141.173L1126.49 141.993H1116.65L1115.83 141.173V109.193H1115.01L1101.89 141.173L1101.07 141.993H1092.05L1091.23 141.173L1078.11 109.193H1077.29V141.173L1076.47 141.993H1066.63L1065.81 141.173V85.4127L1066.63 84.5927H1078.93L1079.75 85.4127L1096.15 125.593H1096.97L1113.37 85.4127L1114.19 84.5927H1126.49L1127.31 85.4127V141.173ZM1180.62 141.173L1179.8 141.993H1141.26L1140.44 141.173V85.4127L1141.26 84.5927H1179.8L1180.62 85.4127V93.6127L1179.8 94.4327H1152.74L1151.92 95.2527V106.733L1152.74 107.553H1178.16L1178.98 108.373V116.573L1178.16 117.393H1152.74L1151.92 118.213V131.333L1152.74 132.153H1179.8L1180.62 132.973V141.173ZM1192.1 85.4127L1192.92 84.5927H1204.4L1206.04 85.4127L1228.18 123.133H1229V85.4127L1229.82 84.5927H1239.66L1240.48 85.4127V141.173L1239.66 141.993H1228.18L1226.54 141.173L1204.4 103.453H1203.58V141.173L1202.76 141.993H1192.92L1192.1 141.173V85.4127ZM1296.24 93.6127L1295.42 94.4327H1279.02L1278.2 95.2527V141.173L1277.38 141.993H1267.54L1266.72 141.173V95.2527L1265.9 94.4327H1249.5L1248.68 93.6127V85.4127L1249.5 84.5927H1295.42L1296.24 85.4127V93.6127Z" fill="black"/>
<path d="M619.639 58.1072L618.819 58.9272H581.919L581.099 58.1072V2.34724L581.919 1.52724H591.759L592.579 2.34724V48.2672L593.399 49.0872H618.819L619.639 49.9072V58.1072ZM673.685 58.1072L672.865 58.9272H665.485L664.665 58.1072L660.565 47.4472L658.925 46.6272H638.425L636.785 47.4472L632.685 58.1072L631.865 58.9272H624.485L623.665 58.1072V49.9072L642.525 2.34724L643.345 1.52724H654.005L654.825 2.34724L673.685 49.9072V58.1072ZM656.465 35.9672L649.085 16.2872H648.265L640.885 35.9672L641.705 36.7872H655.645L656.465 35.9672ZM720.457 58.1072L719.637 58.9272H682.737L681.917 58.1072V2.34724L682.737 1.52724H692.577L693.397 2.34724V48.2672L694.217 49.0872H719.637L720.457 49.9072V58.1072ZM766.342 58.1072L765.522 58.9272H728.622L727.802 58.1072V2.34724L728.622 1.52724H738.462L739.282 2.34724V48.2672L740.102 49.0872H765.522L766.342 49.9072V58.1072ZM807.301 10.5472L790.901 37.6072V58.1072L790.081 58.9272H780.241L779.421 58.1072V37.6072L763.021 10.5472V2.34724L763.841 1.52724H769.581L771.221 2.34724L784.341 24.4872H785.981L799.101 2.34724L800.741 1.52724H806.481L807.301 2.34724V10.5472ZM880.268 42.5272C880.268 51.5472 873.708 59.7472 856.488 59.7472C840.088 59.7472 832.708 51.5472 832.708 40.8872L833.528 40.0672H843.368L844.188 40.8872C844.188 46.6272 847.468 49.9072 857.308 49.9072C864.688 49.9072 868.788 47.4472 868.788 42.5272C868.788 36.7872 865.508 35.1472 854.028 33.5072C842.548 31.8672 833.528 27.7672 833.528 16.2872C833.528 8.08725 840.088 0.707243 855.668 0.707243C871.248 0.707243 877.808 8.08725 877.808 17.9272L876.988 18.7472H867.148L866.328 17.9272C866.328 13.0072 863.868 10.5472 854.848 10.5472C847.468 10.5472 845.008 13.0072 845.008 16.2872C845.008 21.2072 848.288 22.8472 859.768 24.4872C871.248 26.1272 880.268 31.0472 880.268 42.5272ZM914.721 49.9072C921.281 49.9072 925.381 47.4472 927.021 41.7072L927.841 40.8872H937.681L938.501 41.7072C936.861 53.1872 927.841 59.7472 914.721 59.7472C896.681 59.7472 886.841 47.4472 886.841 30.2272C886.841 13.0072 896.681 0.707243 914.721 0.707243C927.841 0.707243 936.861 7.26724 938.501 17.9272L937.681 18.7472H927.841L927.021 17.9272C925.381 13.0072 921.281 10.5472 914.721 10.5472C903.241 10.5472 898.321 18.7472 898.321 30.2272C898.321 41.7072 903.241 49.9072 914.721 49.9072ZM995.077 58.1072L994.257 58.9272H984.417L983.597 58.1072V35.1472L982.777 34.3272H960.637L959.817 35.1472V58.1072L958.997 58.9272H949.157L948.337 58.1072V2.34724L949.157 1.52724H958.997L959.817 2.34724V23.6672L960.637 24.4872H982.777L983.597 23.6672V2.34724L984.417 1.52724H994.257L995.077 2.34724V58.1072ZM1049.24 30.2272C1049.24 18.7472 1043.5 10.5472 1032.84 10.5472C1022.18 10.5472 1016.44 18.7472 1016.44 30.2272C1016.44 41.7072 1022.18 49.9072 1032.84 49.9072C1043.5 49.9072 1049.24 41.7072 1049.24 30.2272ZM1060.72 30.2272C1060.72 47.4472 1050.06 59.7472 1032.84 59.7472C1015.62 59.7472 1004.96 47.4472 1004.96 30.2272C1004.96 13.0072 1015.62 0.707243 1032.84 0.707243C1050.06 0.707243 1060.72 13.0072 1060.72 30.2272ZM1111.54 30.2272C1111.54 18.7472 1105.8 10.5472 1095.14 10.5472C1084.48 10.5472 1078.74 18.7472 1078.74 30.2272C1078.74 41.7072 1084.48 49.9072 1095.14 49.9072C1105.8 49.9072 1111.54 41.7072 1111.54 30.2272ZM1123.02 30.2272C1123.02 47.4472 1112.36 59.7472 1095.14 59.7472C1077.92 59.7472 1067.26 47.4472 1067.26 30.2272C1067.26 13.0072 1077.92 0.707243 1095.14 0.707243C1112.36 0.707243 1123.02 13.0072 1123.02 30.2272ZM1171.38 58.1072L1170.56 58.9272H1133.66L1132.84 58.1072V2.34724L1133.66 1.52724H1143.5L1144.32 2.34724V48.2672L1145.14 49.0872H1170.56L1171.38 49.9072V58.1072Z" fill="black"/>
<path d="M427.341 62.482C427.33 62.23 427.319 61.978 427.308 61.737C426.311 40.9097 418.554 25.637 405.549 15.689C405.243 15.4589 404.936 15.2289 404.629 15.0207C392.326 6.00392 375.519 1.59961 355.426 1.59961H235.644L232.511 4.73302V221.968L235.644 225.102H265.072L268.205 221.968V134.32L271.328 131.187H355.426C373.81 131.187 390.156 126.98 402.624 118.379C403.205 117.985 403.764 117.591 404.322 117.174C416.144 108.388 424.153 95.4267 426.618 78.1162C426.705 77.5027 426.782 76.8782 426.859 76.2427C426.935 75.6182 427.001 74.9828 427.056 74.3473C427.1 73.8981 427.144 73.4489 427.166 72.9998C427.341 70.8524 427.418 68.6502 427.418 66.3933C427.418 65.0676 427.396 63.7639 427.341 62.482ZM271.328 98.6368L268.205 95.5033V37.2832L271.339 34.1498H353.235C381.304 34.1498 391.734 42.8927 391.734 66.3933C391.734 89.8939 381.304 98.6368 353.235 98.6368H271.328Z" fill="black"/>
<path d="M500.344 221.968L497.211 225.102H467.783L464.65 221.968V4.73302L467.794 1.59961H497.222L500.355 4.73302V221.968H500.344Z" fill="black"/>
<path d="M172.671 225.102L166.722 221.804L110.441 134.255L104.328 131.198H39.1725L36.0391 134.331V221.979L32.9167 225.113H3.48888L0.355469 221.979V4.73302L3.48888 1.59961H121.079C169.615 1.59961 195.262 24.0046 195.262 66.3933C195.262 98.6368 179.486 119.639 149.587 127.298V130.398L192.129 197.23V221.782L188.809 225.102H172.671ZM121.079 98.6368C149.149 98.6368 159.579 89.8939 159.579 66.3933C159.579 42.8927 149.149 34.1498 121.079 34.1498H39.1835L36.0391 37.2832V95.5033L39.1725 98.6368H121.079Z" fill="black"/>
<path d="M497.232 266.415L500.355 269.539V299.291L497.232 302.415H3.4791L0.355469 299.291V269.539L3.4791 266.415H497.243H497.232Z" fill="black"/>
</svg>
