<svg width="501" height="302" viewBox="0 0 501 302" fill="none" xmlns="http://www.w3.org/2000/svg">
<path d="M426.985 61.4229C426.974 61.1709 426.963 60.919 426.953 60.6779C425.956 39.8506 418.199 24.578 405.194 14.6299C404.887 14.3998 404.58 14.1698 404.274 13.9616C391.97 4.94483 375.164 0.540527 355.07 0.540527H235.288L232.155 3.67394V220.909L235.288 224.043H264.716L267.85 220.909V133.261L270.972 130.128H355.07C373.454 130.128 389.801 125.921 402.269 117.32C402.849 116.926 403.408 116.532 403.967 116.115C415.788 107.329 423.797 94.3676 426.262 77.0571C426.35 76.4436 426.427 75.8191 426.503 75.1836C426.58 74.5592 426.646 73.9237 426.7 73.2883C426.744 72.8391 426.788 72.3899 426.81 71.9407C426.985 69.7933 427.062 67.5912 427.062 65.3342C427.062 64.0085 427.04 62.7048 426.985 61.4229ZM270.972 97.5777L267.85 94.4443V36.2242L270.983 33.0908H352.879C380.948 33.0908 391.378 41.8336 391.378 65.3342C391.378 88.8348 380.948 97.5777 352.879 97.5777H270.972Z" fill="black"/>
<path d="M499.989 220.909L496.856 224.043H467.428L464.294 220.909V3.67394L467.439 0.540527H496.866L500 3.67394V220.909H499.989Z" fill="black"/>
<path d="M172.316 224.043L166.367 220.745L110.086 133.196L103.972 130.139H38.8171L35.6836 133.272V220.92L32.5612 224.054H3.13341L0 220.92V3.67394L3.13341 0.540527H120.724C169.259 0.540527 194.907 22.9455 194.907 65.3342C194.907 97.5777 179.13 118.58 149.232 126.239V129.339L191.774 196.171V220.723L188.454 224.043H172.316ZM120.724 97.5777C148.793 97.5777 159.223 88.8348 159.223 65.3342C159.223 41.8336 148.793 33.0908 120.724 33.0908H38.828L35.6836 36.2242V94.4443L38.8171 97.5777H120.724Z" fill="black"/>
<path d="M31.4473 277.816H15.8262V289.816H31.4473V301.816H15.8223V289.816H0.201172V277.816H15.8223V265.816H31.4473V277.816ZM62.6992 301.816H31.4492V289.816H62.6992V301.816ZM109.574 277.816H93.9512V289.816H109.574V301.816H93.9492V289.816H62.7012V277.816H93.9492V265.816H109.574V277.816ZM172.076 277.816H203.324V289.816H172.076V301.816H140.826V289.816H172.074V277.816H140.826V265.816H172.076V277.816ZM218.951 301.816H203.326V289.816H218.951V301.816ZM250.203 277.816H265.824V289.816H250.203V301.816H234.578V289.816H250.199V277.816H234.578V265.816H250.203V277.816ZM281.449 301.816H265.824V289.816H281.449V301.816ZM312.701 301.816H281.451V289.816H312.701V301.816ZM422.074 301.816H390.828V289.816H422.074V301.816ZM453.326 301.816H437.701V289.816H453.326V301.816ZM484.576 289.816H453.328V277.816H484.576V265.816H500.201V277.816H484.578V289.816H500.201V301.816H484.576V289.816ZM140.824 289.816H109.574V277.816H140.824V289.816ZM234.576 289.816H218.951V277.816H234.576V289.816ZM343.949 289.816H312.703V277.816H343.949V289.816ZM375.201 289.816H343.951V277.816H375.201V289.816ZM390.828 289.816H375.203V277.816H390.828V289.816ZM437.701 289.816H422.076V277.816H437.701V289.816ZM62.6992 277.816H31.4492V265.816H62.6992V277.816ZM218.951 277.816H203.326V265.816H218.951V277.816ZM281.449 277.816H265.824V265.816H281.449V277.816ZM312.701 277.816H281.451V265.816H312.701V277.816ZM422.074 277.816H390.828V265.816H422.074V277.816ZM453.326 277.816H437.701V265.816H453.326V277.816Z" fill="black"/>
</svg>
