<svg width="1002" height="302" viewBox="0 0 1002 302" fill="none" xmlns="http://www.w3.org/2000/svg">
<path d="M605.024 65.0906C605.024 58.3706 601.664 53.5706 595.424 53.5706C589.184 53.5706 585.824 58.3706 585.824 65.0906C585.824 71.8106 589.184 76.6106 595.424 76.6106C601.664 76.6106 605.024 71.8106 605.024 65.0906ZM611.744 65.0906C611.744 75.1706 605.504 82.3706 595.424 82.3706C585.344 82.3706 579.104 75.1706 579.104 65.0906C579.104 55.0106 585.344 47.8106 595.424 47.8106C605.504 47.8106 611.744 55.0106 611.744 65.0906ZM640.052 53.5706L639.572 54.0506H624.692L624.212 54.5306V61.7306L624.692 62.2106H638.612L639.092 62.6906V67.4906L638.612 67.9706H624.692L624.212 68.4506V81.4106L623.732 81.8906H617.972L617.492 81.4106V48.7706L617.972 48.2906H639.572L640.052 48.7706V53.5706ZM693.805 81.4106L693.325 81.8906H687.565L687.085 81.4106V62.6906H686.605L678.925 81.4106L678.445 81.8906H673.165L672.685 81.4106L665.005 62.6906H664.525V81.4106L664.045 81.8906H658.285L657.805 81.4106V48.7706L658.285 48.2906H665.485L665.965 48.7706L675.565 72.2906H676.045L685.645 48.7706L686.125 48.2906H693.325L693.805 48.7706V81.4106ZM727.892 81.4106L727.412 81.8906H723.092L722.612 81.4106L720.212 75.1706L719.252 74.6906H707.252L706.292 75.1706L703.892 81.4106L703.412 81.8906H699.092L698.612 81.4106V76.6106L709.652 48.7706L710.132 48.2906H716.372L716.852 48.7706L727.892 76.6106V81.4106ZM717.812 68.4506L713.492 56.9306H713.012L708.692 68.4506L709.172 68.9306H717.332L717.812 68.4506ZM732.711 48.7706L733.191 48.2906H739.911L740.871 48.7706L753.831 70.8506H754.311V48.7706L754.791 48.2906H760.551L761.031 48.7706V81.4106L760.551 81.8906H753.831L752.871 81.4106L739.911 59.3306H739.431V81.4106L738.951 81.8906H733.191L732.711 81.4106V48.7706ZM795.111 81.4106L794.631 81.8906H790.311L789.831 81.4106L787.431 75.1706L786.471 74.6906H774.471L773.511 75.1706L771.111 81.4106L770.631 81.8906H766.311L765.831 81.4106V76.6106L776.871 48.7706L777.351 48.2906H783.591L784.071 48.7706L795.111 76.6106V81.4106ZM785.031 68.4506L780.711 56.9306H780.231L775.911 68.4506L776.391 68.9306H784.551L785.031 68.4506ZM827.792 81.4106L827.312 81.8906H822.992L822.512 81.4106L822.032 79.0106H821.552C820.592 79.9706 818.192 82.3706 812.912 82.3706C803.312 82.3706 797.072 75.1706 797.072 65.0906C797.072 55.0106 803.312 47.8106 813.392 47.8106C822.992 47.8106 826.832 53.0906 827.792 57.8906L827.312 58.3706H821.552L821.072 57.8906C820.112 55.9706 818.672 53.5706 813.392 53.5706C807.152 53.5706 803.792 58.3706 803.792 65.0906C803.792 71.8106 807.152 76.6106 813.392 76.6106C818.672 76.6106 821.072 73.7306 821.072 69.8906L820.592 69.4106H812.432L811.952 68.9306V64.1306L812.432 63.6506H827.312L827.792 64.1306V81.4106ZM858.044 81.4106L857.564 81.8906H835.004L834.524 81.4106V48.7706L835.004 48.2906H857.564L858.044 48.7706V53.5706L857.564 54.0506H841.724L841.244 54.5306V61.2506L841.724 61.7306H856.604L857.084 62.2106V67.0106L856.604 67.4906H841.724L841.244 67.9706V75.6506L841.724 76.1306H857.564L858.044 76.6106V81.4106ZM900.758 81.4106L900.278 81.8906H894.518L894.038 81.4106V62.6906H893.558L885.878 81.4106L885.398 81.8906H880.118L879.638 81.4106L871.958 62.6906H871.478V81.4106L870.998 81.8906H865.238L864.758 81.4106V48.7706L865.238 48.2906H872.438L872.918 48.7706L882.518 72.2906H882.998L892.598 48.7706L893.078 48.2906H900.278L900.758 48.7706V81.4106ZM931.965 81.4106L931.485 81.8906H908.925L908.445 81.4106V48.7706L908.925 48.2906H931.485L931.965 48.7706V53.5706L931.485 54.0506H915.645L915.165 54.5306V61.2506L915.645 61.7306H930.525L931.005 62.2106V67.0106L930.525 67.4906H915.645L915.165 67.9706V75.6506L915.645 76.1306H931.485L931.965 76.6106V81.4106ZM938.68 48.7706L939.16 48.2906H945.88L946.84 48.7706L959.8 70.8506H960.28V48.7706L960.76 48.2906H966.52L967 48.7706V81.4106L966.52 81.8906H959.8L958.84 81.4106L945.88 59.3306H945.4V81.4106L944.92 81.8906H939.16L938.68 81.4106V48.7706ZM999.64 53.5706L999.16 54.0506H989.56L989.08 54.5306V81.4106L988.6 81.8906H982.84L982.36 81.4106V54.5306L981.88 54.0506H972.28L971.8 53.5706V48.7706L972.28 48.2906H999.16L999.64 48.7706V53.5706Z" fill="black"/>
<path d="M603.584 33.9638L603.104 34.4438H581.504L581.024 33.9638V1.32384L581.504 0.843845H587.264L587.744 1.32384V28.2038L588.224 28.6838H603.104L603.584 29.1638V33.9638ZM635.22 33.9638L634.74 34.4438H630.42L629.94 33.9638L627.54 27.7238L626.58 27.2438H614.58L613.62 27.7238L611.22 33.9638L610.74 34.4438H606.42L605.94 33.9638V29.1638L616.98 1.32384L617.46 0.843845H623.7L624.18 1.32384L635.22 29.1638V33.9638ZM625.14 21.0038L620.82 9.48385H620.34L616.02 21.0038L616.5 21.4838H624.66L625.14 21.0038ZM662.599 33.9638L662.119 34.4438H640.519L640.039 33.9638V1.32384L640.519 0.843845H646.279L646.759 1.32384V28.2038L647.239 28.6838H662.119L662.599 29.1638V33.9638ZM689.459 33.9638L688.979 34.4438H667.379L666.899 33.9638V1.32384L667.379 0.843845H673.139L673.619 1.32384V28.2038L674.099 28.6838H688.979L689.459 29.1638V33.9638ZM713.434 6.12385L703.834 21.9638V33.9638L703.354 34.4438H697.594L697.114 33.9638V21.9638L687.514 6.12385V1.32384L687.994 0.843845H691.354L692.314 1.32384L699.994 14.2838H700.954L708.634 1.32384L709.594 0.843845H712.954L713.434 1.32384V6.12385ZM756.147 24.8438C756.147 30.1238 752.307 34.9238 742.227 34.9238C732.627 34.9238 728.307 30.1238 728.307 23.8838L728.787 23.4038H734.547L735.027 23.8838C735.027 27.2438 736.947 29.1638 742.707 29.1638C747.027 29.1638 749.427 27.7238 749.427 24.8438C749.427 21.4838 747.507 20.5238 740.787 19.5638C734.067 18.6038 728.787 16.2038 728.787 9.48385C728.787 4.68385 732.627 0.363846 741.747 0.363846C750.867 0.363846 754.707 4.68385 754.707 10.4438L754.227 10.9238H748.467L747.987 10.4438C747.987 7.56385 746.547 6.12385 741.267 6.12385C736.947 6.12385 735.507 7.56385 735.507 9.48385C735.507 12.3638 737.427 13.3238 744.147 14.2838C750.867 15.2438 756.147 18.1238 756.147 24.8438ZM776.314 29.1638C780.154 29.1638 782.554 27.7238 783.514 24.3638L783.994 23.8838H789.754L790.234 24.3638C789.274 31.0838 783.994 34.9238 776.314 34.9238C765.754 34.9238 759.994 27.7238 759.994 17.6438C759.994 7.56385 765.754 0.363846 776.314 0.363846C783.994 0.363846 789.274 4.20385 790.234 10.4438L789.754 10.9238H783.994L783.514 10.4438C782.554 7.56385 780.154 6.12385 776.314 6.12385C769.594 6.12385 766.714 10.9238 766.714 17.6438C766.714 24.3638 769.594 29.1638 776.314 29.1638ZM823.352 33.9638L822.872 34.4438H817.112L816.632 33.9638V20.5238L816.152 20.0438H803.192L802.712 20.5238V33.9638L802.232 34.4438H796.472L795.992 33.9638V1.32384L796.472 0.843845H802.232L802.712 1.32384V13.8038L803.192 14.2838H816.152L816.632 13.8038V1.32384L817.112 0.843845H822.872L823.352 1.32384V33.9638ZM855.055 17.6438C855.055 10.9238 851.695 6.12385 845.455 6.12385C839.215 6.12385 835.855 10.9238 835.855 17.6438C835.855 24.3638 839.215 29.1638 845.455 29.1638C851.695 29.1638 855.055 24.3638 855.055 17.6438ZM861.775 17.6438C861.775 27.7238 855.535 34.9238 845.455 34.9238C835.375 34.9238 829.135 27.7238 829.135 17.6438C829.135 7.56385 835.375 0.363846 845.455 0.363846C855.535 0.363846 861.775 7.56385 861.775 17.6438ZM891.524 17.6438C891.524 10.9238 888.164 6.12385 881.924 6.12385C875.684 6.12385 872.324 10.9238 872.324 17.6438C872.324 24.3638 875.684 29.1638 881.924 29.1638C888.164 29.1638 891.524 24.3638 891.524 17.6438ZM898.244 17.6438C898.244 27.7238 892.004 34.9238 881.924 34.9238C871.844 34.9238 865.604 27.7238 865.604 17.6438C865.604 7.56385 871.844 0.363846 881.924 0.363846C892.004 0.363846 898.244 7.56385 898.244 17.6438ZM926.552 33.9638L926.072 34.4438H904.472L903.992 33.9638V1.32384L904.472 0.843845H910.232L910.712 1.32384V28.2038L911.192 28.6838H926.072L926.552 29.1638V33.9638Z" fill="black"/>
<path d="M427.32 61.6275C427.309 61.3755 427.298 61.1236 427.287 60.8826C426.29 40.0576 418.534 24.7867 405.531 14.8398C405.224 14.6097 404.918 14.3797 404.611 14.1715C392.309 5.15576 375.504 0.751953 355.413 0.751953H235.645L232.512 3.88501V221.096L235.645 224.229H265.069L268.202 221.096V133.458L271.324 130.325H355.413C373.795 130.325 390.14 126.118 402.606 117.519C403.187 117.124 403.745 116.73 404.304 116.314C416.124 107.528 424.132 94.5684 426.597 77.2599C426.685 76.6465 426.761 76.022 426.838 75.3867C426.915 74.7622 426.98 74.1269 427.035 73.4915C427.079 73.0424 427.123 72.5932 427.145 72.1441C427.32 69.9969 427.397 67.795 427.397 65.5384C427.397 64.2128 427.375 62.9092 427.32 61.6275ZM271.324 97.7782L268.202 94.6451V36.4316L271.335 33.2985H353.222C381.288 33.2985 391.717 42.0404 391.717 65.5384C391.717 89.0363 381.288 97.7782 353.222 97.7782H271.324Z" fill="black"/>
<path d="M500.315 221.096L497.182 224.229H467.758L464.625 221.096V3.88501L467.769 0.751953H497.193L500.326 3.88501V221.096H500.315Z" fill="black"/>
<path d="M172.679 224.229L166.731 220.932L110.456 133.392L104.343 130.336H39.1955L36.0624 133.469V221.107L32.9403 224.24H3.51587L0.382812 221.107V3.88501L3.51587 0.751953H121.093C169.623 0.751953 195.268 23.1544 195.268 65.5384C195.268 97.7782 179.493 118.778 149.598 126.436V129.536L192.135 196.36V220.91L188.816 224.229H172.679ZM121.093 97.7782C149.159 97.7782 159.588 89.0363 159.588 65.5384C159.588 42.0404 149.159 33.2985 121.093 33.2985H39.2065L36.0624 36.4316V94.6451L39.1955 97.7782H121.093Z" fill="black"/>
<path d="M497.176 265.572L500.299 268.695V298.444L497.176 301.567H3.47875L0.355469 298.444V268.695L3.47875 265.572H497.187H497.176Z" fill="black"/>
</svg>
